<svg width="100" height="50.0732" viewBox="0 0 26.4583 13.2485" xmlns="http://www.w3.org/2000/svg" xmlns:xlink="http://www.w3.org/1999/xlink" id="svg8" overflow="hidden"><defs id="defs2"></defs><g id="layer1" transform="translate(-40.6636 -30.446)"><g id="text12" stroke-width="0.420097" font-family="Arial" font-weight="400" font-size="16.8038" letter-spacing="-2.54" transform="matrix(0.820474 0 0 0.820474 7.30018 5.46585)"><path d="M57.0275 38.5607C57.0275 39.3265 56.9181 40.0157 56.6993 40.6284 56.486 41.241 56.1961 41.7552 55.8296 42.1709 55.4412 42.603 55.0145 42.9285 54.5496 43.1473 54.0846 43.3606 53.5732 43.4673 53.0153 43.4673 52.4956 43.4673 52.0416 43.4044 51.6532 43.2786 51.2649 43.1582 50.882 42.9941 50.5045 42.7863L50.4061 43.2129 48.962 43.2129 48.962 30.446 50.5045 30.446 50.5045 35.008C50.9367 34.6524 51.3961 34.3625 51.883 34.1382 52.3698 33.9085 52.9168 33.7936 53.524 33.7936 54.607 33.7936 55.4604 34.2093 56.0839 35.0408 56.713 35.8722 57.0275 37.0455 57.0275 38.5607ZM55.4357 38.6017C55.4357 37.5077 55.2552 36.679 54.8942 36.1156 54.5332 35.5467 53.9506 35.2623 53.1465 35.2623 52.698 35.2623 52.244 35.3608 51.7845 35.5577 51.325 35.7491 50.8984 35.998 50.5045 36.3043L50.5045 41.5555C50.9421 41.7524 51.3168 41.8892 51.6286 41.9658 51.9459 42.0424 52.3042 42.0806 52.7035 42.0806 53.5568 42.0806 54.2241 41.8017 54.7055 41.2437 55.1923 40.6803 55.4357 39.7997 55.4357 38.6017Z" id="path1451" fill="#FF2A2A"/><path d="M64.4894 43.2129 62.9468 43.2129 62.9468 42.1955C62.4272 42.6058 61.9294 42.9203 61.4535 43.1391 60.9776 43.3579 60.4525 43.4673 59.8782 43.4673 58.9155 43.4673 58.1661 43.1746 57.63 42.5894 57.094 41.9986 56.8259 41.1343 56.8259 39.9966L56.8259 34.048 58.3685 34.048 58.3685 39.2663C58.3685 39.7313 58.3903 40.1306 58.4341 40.4643 58.4779 40.7925 58.5708 41.0742 58.7131 41.3094 58.8608 41.5501 59.0522 41.7251 59.2874 41.8345 59.5226 41.9439 59.8645 41.9986 60.313 41.9986 60.7123 41.9986 61.1472 41.8947 61.6176 41.6868 62.0935 41.479 62.5366 41.2137 62.9468 40.8909L62.9468 34.048 64.4894 34.048Z" id="path1453" fill="#37C871"/><path d="M72.9112 34.048 67.5616 46.5934 65.9124 46.5934 67.619 42.7699 63.9678 34.048 65.6416 34.048 68.4559 40.8417 71.2948 34.048Z" id="path1455" fill="#FFCC00"/></g><text id="text30" stroke-width="0.217083" font-family="Arial" font-weight="400" font-size="8.68336" xml:space="preserve" x="77.4887" y="36.8952"><tspan x="77.4887" y="36.8952"></tspan></text><g id="text1417" stroke-width="0.422618" font-family="Arial" font-weight="400" font-size="16.9047" transform="matrix(-0.820474 0 0 0.820474 7.30018 5.46585)"><path d="M-40.6636 38.7817-47.4569 38.7817C-47.4569 39.3485-47.3716 39.8438-47.201 40.2675-47.0304 40.6857-46.7965 41.0296-46.4994 41.2993-46.2132 41.5634-45.8748 41.7615-45.4841 41.8936-45.0879 42.0257-44.6532 42.0917-44.1799 42.0917-43.5526 42.0917-42.9225 41.9679-42.2897 41.7202-41.6514 41.4671-41.1974 41.2195-40.9277 40.9774L-40.8452 40.9774-40.8452 42.6695C-41.368 42.8896-41.9017 43.0739-42.4465 43.2225-42.9913 43.3711-43.5636 43.4454-44.1634 43.4454-45.6932 43.4454-46.8873 43.0327-47.7458 42.2072-48.6042 41.3763-49.0334 40.1987-49.0334 38.6744-49.0334 37.1667-48.6235 35.9698-47.8035 35.0838-46.9781 34.1979-45.8941 33.7549-44.5514 33.7549-43.3077 33.7549-42.3502 34.1181-41.6789 34.8445-41.002 35.5708-40.6636 36.6026-40.6636 37.9398ZM-42.1741 37.5931C-42.1797 36.7787-42.386 36.1486-42.7932 35.7029-43.1949 35.2572-43.8085 35.0343-44.6339 35.0343-45.4648 35.0343-46.1279 35.2792-46.6232 35.7689-47.1129 36.2587-47.3908 36.8667-47.4569 37.5931Z" id="path1448" fill="#2A7FFF"/></g></g></svg>