<?xml version="1.0" encoding="UTF-8" standalone="no"?>
<svg
   xmlns:dc="http://purl.org/dc/elements/1.1/"
   xmlns:cc="http://creativecommons.org/ns#"
   xmlns:rdf="http://www.w3.org/1999/02/22-rdf-syntax-ns#"
   xmlns:svg="http://www.w3.org/2000/svg"
   xmlns="http://www.w3.org/2000/svg"
   width="26.458334mm"
   height="13.248524mm"
   viewBox="0 0 26.458334 13.248524"
   version="1.1"
   id="svg8">
  <defs
     id="defs2" />
  <metadata
     id="metadata5">
    <rdf:RDF>
      <cc:Work
         rdf:about="">
        <dc:format>image/svg+xml</dc:format>
        <dc:type
           rdf:resource="http://purl.org/dc/dcmitype/StillImage" />
        <dc:title></dc:title>
      </cc:Work>
    </rdf:RDF>
  </metadata>
  <g
     id="layer1"
     transform="translate(-40.663611,-30.445987)">
    <g
       aria-label="buy"
       id="text12"
       style="font-style:normal;font-weight:normal;font-size:16.8038px;line-height:0;font-family:sans-serif;letter-spacing:-2.54px;word-spacing:0px;fill:#000000;fill-opacity:1;stroke:none;stroke-width:0.420097"
       transform="matrix(0.82047404,0,0,0.82047404,7.3001751,5.4658458)">
      <path
         d="m 57.027502,38.560712 q 0,1.148698 -0.3282,2.067655 -0.319994,0.918958 -0.869728,1.542537 -0.582553,0.648193 -1.279977,0.976393 -0.697423,0.319994 -1.534331,0.319994 -0.779473,0 -1.362027,-0.188715 -0.582553,-0.180509 -1.148697,-0.492299 l -0.09846,0.426659 h -1.444076 v -12.76695 h 1.542536 v 4.56197 q 0.648193,-0.533324 1.378437,-0.869728 0.730243,-0.34461 1.640996,-0.34461 1.624586,0 2.559954,1.247158 0.943573,1.247157 0.943573,3.519936 z m -1.591767,0.04102 q 0,-1.640996 -0.541528,-2.486109 -0.541529,-0.853318 -1.747661,-0.853318 -0.672809,0 -1.362027,0.295379 -0.689218,0.287175 -1.279977,0.746654 v 5.251187 q 0.656398,0.29538 1.124082,0.410249 0.475889,0.11487 1.074853,0.11487 1.279977,0 2.002015,-0.836908 0.730243,-0.845113 0.730243,-2.642004 z"
         style="fill:#ff2a2a;fill-opacity:1"
         id="path1451" />
      <path
         d="m 64.489374,43.212936 h -1.542537 v -1.017417 q -0.779473,0.615373 -1.493306,0.943573 -0.713834,0.328199 -1.575357,0.328199 -1.444076,0 -2.248164,-0.877933 -0.804088,-0.886138 -0.804088,-2.592774 v -5.948611 h 1.542536 v 5.218368 q 0,0.697423 0.06564,1.197927 0.06564,0.492299 0.278969,0.845113 0.221535,0.361019 0.574349,0.525119 0.352814,0.164099 1.025622,0.164099 0.598964,0 1.304592,-0.311789 0.713834,-0.311789 1.329207,-0.795883 v -6.842954 h 1.542537 z"
         style="fill:#37c871;fill-opacity:1"
         id="path1453" />
      <path
         d="M 72.911228,34.047973 67.56158,46.593388 h -1.649201 l 1.706636,-3.823521 -3.651216,-8.721894 h 1.673816 l 2.814308,6.793724 2.838923,-6.793724 z"
         style="fill:#ffcc00;fill-opacity:1"
         id="path1455" />
    </g>
    <text
       xml:space="preserve"
       style="font-style:normal;font-weight:normal;font-size:8.68336px;line-height:1.25;font-family:sans-serif;fill:#000000;fill-opacity:1;stroke:none;stroke-width:0.217083"
       x="77.488693"
       y="36.895241"
       id="text30"><tspan
         id="tspan28"
         x="77.488693"
         y="36.895241"
         style="stroke-width:0.217083" /></text>
    <g
       aria-label="e"
       transform="matrix(-0.82047404,0,0,0.82047404,7.3001751,5.4658458)"
       id="text1417"
       style="font-style:normal;font-weight:normal;font-size:16.9047px;line-height:1.25;font-family:sans-serif;fill:#000000;fill-opacity:1;stroke:none;stroke-width:0.422618">
      <path
         d="m -40.66361,38.781734 h -6.793246 q 0,0.850188 0.255882,1.485765 0.255882,0.627323 0.701611,1.031781 0.429221,0.396204 1.015273,0.594306 0.594305,0.198102 1.304171,0.198102 0.940984,0 1.890222,-0.371441 0.957493,-0.379696 1.361951,-0.742883 h 0.08254 v 1.692121 q -0.784154,0.33017 -1.601324,0.553035 -0.817171,0.222864 -1.716884,0.222864 -2.294681,0 -3.582343,-1.238137 -1.287663,-1.246391 -1.287663,-3.532818 0,-2.261664 1.229883,-3.590598 1.238137,-1.328933 3.252174,-1.328933 1.86546,0 2.872478,1.08956 1.015272,1.089561 1.015272,3.095343 z m -1.510527,-1.188611 q -0.0083,-1.221629 -0.619069,-1.890223 -0.60256,-0.668594 -1.840697,-0.668594 -1.246391,0 -1.989274,0.734628 -0.734628,0.734628 -0.833679,1.824189 z"
         style="fill:#2a7fff;fill-opacity:1;stroke-width:0.422618"
         id="path1448" />
    </g>
  </g>
</svg>
