<svg id="Layer_5" enable-background="new 0 0 62 62" height="512" viewBox="0 0 62 62" width="512" xmlns="http://www.w3.org/2000/svg"><g><path d="m58.937 42c-.883 0-1.724.381-2.306 1.046l-1.912 2.185-.872-5.231h1.611c3.607 0 6.542-2.935 6.542-6.542 0-.357-.03-.719-.089-1.075l-4.064-24.383h-4.847v-2c0-3.309-2.691-6-6-6s-6 2.691-6 6v2h-4.847l-2.333 14h-4.667l-3.86 23.159c-.189.123-.385.234-.561.375l-1.361 1.089c-.849-1.554-2.479-2.623-4.371-2.623-1.476 0-3.44.697-4.517 2h-14.483v14h14.483c1.077 1.303 3.041 2 4.517 2 2.141 0 3.957-1.36 4.669-3.255l1.887.755c.83.333 1.705.501 2.6.501h13.071c7.707 0 14.861-3.829 19.137-10.242l.395-.592c.811-1.22 1.241-2.638 1.241-4.104 0-1.688-1.374-3.063-3.063-3.063zm-15.937-36c0-2.206 1.794-4 4-4s4 1.794 4 4v2h-8zm-5.153 4h3.153v2.184c-1.161.414-2 1.514-2 2.816 0 1.654 1.346 3 3 3s3-1.346 3-3c0-1.302-.839-2.402-2-2.816v-2.184h8v2.184c-1.161.414-2 1.514-2 2.816 0 1.654 1.346 3 3 3s3-1.346 3-3c0-1.302-.839-2.402-2-2.816v-2.184h3.153l3.786 22.711c.04.247.061.499.061.747 0 2.505-2.037 4.542-4.542 4.542h-1.945l-2.667-16h-15zm5.153 5c0 .551-.449 1-1 1s-1-.449-1-1 .449-1 1-1 1 .449 1 1zm10 0c0 .551-.449 1-1 1s-1-.449-1-1 .449-1 1-1 1 .449 1 1zm-22.153 9h18.306l3.786 22.712c.014.085.013.173.022.259-2.233 1.862-5.032 2.933-7.971 3.011.625-.835 1.01-1.861 1.01-2.982 0-1.654-1.346-3-3-3h-13.896c-.552 0-1.094.089-1.627.217zm-28.847 24h12v10h-12zm19.581 3.503c.278.477.419.981.419 1.497s-.141 1.02-.419 1.497l-.293.503.293.503c.278.477.419.981.419 1.497 0 1.654-1.346 3-3 3-1.131 0-2.432-.588-3-1.319v-11.362c.568-.731 1.869-1.319 3-1.319 1.654 0 3 1.346 3 3 0 .516-.141 1.02-.419 1.497l-.293.503zm37.513-3.446-.395.592c-3.904 5.855-10.436 9.351-17.473 9.351h-13.071c-.639 0-1.264-.12-1.856-.358l-2.33-.932c-.035-.587-.155-1.162-.401-1.711.287-.638.432-1.309.432-1.999s-.145-1.361-.432-2c.287-.639.432-1.31.432-2 0-.101-.024-.196-.03-.296l2.011-1.609c.884-.706 1.993-1.095 3.123-1.095h13.896c.551 0 1 .449 1 1 0 1.654-1.346 3-3 3h-1-4v2h4 1 3.647c4.326 0 8.44-1.867 11.288-5.122l2.2-2.515c.203-.231.495-.363.802-.363.586 0 1.063.477 1.063 1.063 0 1.069-.313 2.104-.906 2.994z"/><circle cx="19" cy="57" r="1"/><circle cx="19" cy="53" r="1"/><circle cx="19" cy="49" r="1"/><path d="m14.586 13c.645.645 1.502 1 2.414 1s1.77-.355 2.414-1l2.464-2.464c.724-.723 1.122-1.685 1.122-2.707 0-2.112-1.718-3.829-3.83-3.829-.786 0-1.537.236-2.17.673-.634-.437-1.384-.673-2.171-.673-2.112 0-3.829 1.717-3.829 3.829 0 1.022.398 1.984 1.122 2.707zm.244-7c.488 0 .947.19 1.292.535l.878.876.878-.876c.346-.345.805-.535 1.293-.535 1.009 0 1.829.82 1.829 1.829 0 .488-.19.947-.536 1.293l-2.464 2.464c-.526.526-1.474.526-2 0l-2.464-2.464c-.346-.346-.536-.805-.536-1.293 0-1.009.821-1.829 1.83-1.829z"/><path d="m8 18h5.586l3.293 3.293c.456.456 1.062.707 1.707.707 1.331 0 2.414-1.083 2.414-2.414v-1.586h5c1.654 0 3-1.346 3-3v-12c0-1.654-1.346-3-3-3h-18c-1.654 0-3 1.346-3 3v12c0 1.654 1.346 3 3 3zm-1-15c0-.551.449-1 1-1h18c.551 0 1 .449 1 1v12c0 .551-.449 1-1 1h-7v3.586c0 .337-.469.532-.707.293l-3.879-3.879h-6.414c-.551 0-1-.449-1-1z"/><path d="m34 31.816v4.184c0 3.309 2.691 6 6 6s6-2.691 6-6v-4.184c1.161-.414 2-1.514 2-2.816 0-1.654-1.346-3-3-3s-3 1.346-3 3c0 1.302.839 2.402 2 2.816v4.184c0 2.206-1.794 4-4 4s-4-1.794-4-4v-4.184c1.161-.414 2-1.514 2-2.816 0-1.654-1.346-3-3-3s-3 1.346-3 3c0 1.302.839 2.402 2 2.816zm11-3.816c.551 0 1 .449 1 1s-.449 1-1 1-1-.449-1-1 .449-1 1-1zm-10 0c.551 0 1 .449 1 1s-.449 1-1 1-1-.449-1-1 .449-1 1-1z"/></g></svg>