<svg version="1.1" xmlns="http://www.w3.org/2000/svg" xmlns:xlink="http://www.w3.org/1999/xlink" width="1468" height="790">
    <g>
        <g transform="translate(2,2) scale(1,1)">
            <path fill="none" stroke="#000000" d="M 8 8 L 1456 8 L 1456 776 L 8 776 L 8 8" stroke-miterlimit="10" />
        </g>
        <g transform="translate(2,2) scale(1,1)">
            <path fill="#ffffd8" stroke="none" d="M 8 8 L 8 30 L 109.0205078125 30 L 120.0205078125 19 L 120.0205078125 8 L 8 8" />
        </g>
        <g transform="translate(2,2) scale(1,1)">
            <path fill="none" stroke="#000000" d="M 8 8 L 8 30 L 109.0205078125 30 L 120.0205078125 19 L 120.0205078125 8 L 8 8 L 8 8" stroke-miterlimit="10" />
        </g>
        <g transform="translate(2,2) scale(1,1)">
            <g>
                <path fill="none" stroke="none" />
                <text fill="#000000" stroke="none" font-family="Arial" font-size="13px" font-style="normal" font-weight="normal" text-decoration="none" x="32.72998046875" y="25.5">Show Offers</text>
            </g>
        </g>
        <g transform="translate(2,2) scale(1,1)">
            <g>
                <path fill="none" stroke="none" />
                <text fill="#000000" stroke="none" font-family="Arial" font-size="13px" font-style="normal" font-weight="bold" text-decoration="none" x="13" y="25.5">sd</text>
            </g>
        </g>
        <g transform="translate(2,2) scale(1,1)">
            <rect fill="#C0C0C0" stroke="none" x="807" y="47" width="135.314453125" height="39" opacity="0.2" />
        </g>
        <g transform="translate(2,2) scale(1,1)">
            <rect fill="#ffd8d8" stroke="none" x="800" y="40" width="135.314453125" height="39" />
        </g>
        <g transform="translate(2,2) scale(1,1)">
            <path fill="none" stroke="#700000" d="M 800 40 L 935.314453125 40 L 935.314453125 79 L 800 79 L 800 40 Z Z" stroke-miterlimit="10" />
        </g>
        <g transform="translate(2,2) scale(1,1)">
            <g>
                <path fill="none" stroke="none" />
                <text fill="#700000" stroke="none" font-family="Arial" font-size="13px" font-style="normal" font-weight="bold" text-decoration="none" x="819.37060546875" y="59.5">GetOffersServlet</text>
            </g>
        </g>
        <g transform="translate(2,2) scale(1,1)">
            <path fill="none" stroke="#000000" d="M 868.5 80 L 868.5 776" stroke-miterlimit="10" stroke-dasharray="3" />
        </g>
        <g transform="translate(2,2) scale(1,1)">
            <rect fill="#C0C0C0" stroke="none" x="1167" y="47" width="96.27001953125" height="39" opacity="0.2" />
        </g>
        <g transform="translate(2,2) scale(1,1)">
            <rect fill="#d8ffeb" stroke="none" x="1160" y="40" width="96.27001953125" height="39" />
        </g>
        <g transform="translate(2,2) scale(1,1)">
            <path fill="none" stroke="#005128" d="M 1160 40 L 1256.27001953125 40 L 1256.27001953125 79 L 1160 79 L 1160 40 Z Z" stroke-miterlimit="10" />
        </g>
        <g transform="translate(2,2) scale(1,1)">
            <g>
                <path fill="none" stroke="none" />
                <text fill="#005128" stroke="none" font-family="Arial" font-size="13px" font-style="normal" font-weight="bold" text-decoration="none" x="1172.369140625" y="59.5">AuctionDAO</text>
            </g>
        </g>
        <g transform="translate(2,2) scale(1,1)">
            <path fill="none" stroke="#000000" d="M 1209.5 80 L 1209.5 776" stroke-miterlimit="10" stroke-dasharray="3" />
        </g>
        <g transform="translate(2,2) scale(1,1)">
            <rect fill="#C0C0C0" stroke="none" x="1279" y="47" width="74.6181640625" height="39" opacity="0.2" />
        </g>
        <g transform="translate(2,2) scale(1,1)">
            <rect fill="#d8ffeb" stroke="none" x="1272" y="40" width="74.6181640625" height="39" />
        </g>
        <g transform="translate(2,2) scale(1,1)">
            <path fill="none" stroke="#005128" d="M 1272 40 L 1346.6181640625 40 L 1346.6181640625 79 L 1272 79 L 1272 40 Z Z" stroke-miterlimit="10" />
        </g>
        <g transform="translate(2,2) scale(1,1)">
            <g>
                <path fill="none" stroke="none" />
                <text fill="#005128" stroke="none" font-family="Arial" font-size="13px" font-style="normal" font-weight="bold" text-decoration="none" x="1282.582275390625" y="59.5">ItemDAO</text>
            </g>
        </g>
        <g transform="translate(2,2) scale(1,1)">
            <path fill="none" stroke="#000000" d="M 1310.5 80 L 1310.5 776" stroke-miterlimit="10" stroke-dasharray="3" />
        </g>
        <g transform="translate(2,2) scale(1,1)">
            <rect fill="#C0C0C0" stroke="none" x="1367" y="47" width="86.17724609375" height="39" opacity="0.2" />
        </g>
        <g transform="translate(2,2) scale(1,1)">
            <rect fill="#d8ffeb" stroke="none" x="1360" y="40" width="86.17724609375" height="39" />
        </g>
        <g transform="translate(2,2) scale(1,1)">
            <path fill="none" stroke="#005128" d="M 1360 40 L 1446.17724609375 40 L 1446.17724609375 79 L 1360 79 L 1360 40 Z Z" stroke-miterlimit="10" />
        </g>
        <g transform="translate(2,2) scale(1,1)">
            <g>
                <path fill="none" stroke="none" />
                <text fill="#005128" stroke="none" font-family="Arial" font-size="13px" font-style="normal" font-weight="bold" text-decoration="none" x="1371.42333984375" y="59.5">OffersDAO</text>
            </g>
        </g>
        <g transform="translate(2,2) scale(1,1)">
            <path fill="none" stroke="#000000" d="M 1404.5 80 L 1404.5 776" stroke-miterlimit="10" stroke-dasharray="3" />
        </g>
        <g transform="translate(2,2) scale(1,1)">
            <g>
                <path fill="none" stroke="none" />
                <text fill="#000000" stroke="none" font-family="Arial" font-size="11px" font-style="normal" font-weight="normal" text-decoration="none" x="917" y="400">json = Gson.toJson(</text>
            </g>
        </g>
        <g transform="translate(2,2) scale(1,1)">
            <g>
                <path fill="none" stroke="none" />
                <text fill="#000000" stroke="none" font-family="Arial" font-size="11px" font-style="normal" font-weight="normal" text-decoration="none" x="917" y="413"> auctionDetails,</text>
            </g>
        </g>
        <g transform="translate(2,2) scale(1,1)">
            <g>
                <path fill="none" stroke="none" />
                <text fill="#000000" stroke="none" font-family="Arial" font-size="11px" font-style="normal" font-weight="normal" text-decoration="none" x="917" y="426">  item,</text>
            </g>
        </g>
        <g transform="translate(2,2) scale(1,1)">
            <g>
                <path fill="none" stroke="none" />
                <text fill="#000000" stroke="none" font-family="Arial" font-size="11px" font-style="normal" font-weight="normal" text-decoration="none" x="917" y="439">  offers</text>
            </g>
        </g>
        <g transform="translate(2,2) scale(1,1)">
            <g>
                <path fill="none" stroke="none" />
                <text fill="#000000" stroke="none" font-family="Arial" font-size="11px" font-style="normal" font-weight="normal" text-decoration="none" x="917" y="452">)</text>
            </g>
        </g>
        <g transform="translate(2,2) scale(1,1)">
            <rect fill="#C0C0C0" stroke="none" x="135" y="47" width="143.96630859375" height="39" opacity="0.2" />
        </g>
        <g transform="translate(2,2) scale(1,1)">
            <rect fill="#d8f2ff" stroke="none" x="128" y="40" width="143.96630859375" height="39" />
        </g>
        <g transform="translate(2,2) scale(1,1)">
            <path fill="none" stroke="#003d5b" d="M 128 40 L 271.96630859375 40 L 271.96630859375 79 L 128 79 L 128 40 Z Z" stroke-miterlimit="10" />
        </g>
        <g transform="translate(2,2) scale(1,1)">
            <g>
                <path fill="none" stroke="none" />
                <text fill="#003d5b" stroke="none" font-family="Arial" font-size="13px" font-style="normal" font-weight="bold" text-decoration="none" x="142.543212890625" y="59.5">index.html - index.js</text>
            </g>
        </g>
        <g transform="translate(2,2) scale(1,1)">
            <path fill="none" stroke="#000000" d="M 200.5 80 L 200.5 776" stroke-miterlimit="10" stroke-dasharray="3" />
        </g>
        <g transform="translate(2,2) scale(1,1)">
            <path fill="#000000" stroke="none" d="M 112 108.5 C 112 104.6340064 115.1340064 101.5 119 101.5 C 122.8659936 101.5 126 104.6340064 126 108.5 C 126 112.3659936 122.8659936 115.5 119 115.5 C 115.1340064 115.5 112 112.3659936 112 108.5 Z" />
        </g>
        <g transform="translate(2,2) scale(1,1)">
            <path fill="#ffffd8" stroke="none" d="M 16 88 L 74 88 L 84 98 L 84 126 L 16 126 L 16 88" />
        </g>
        <g transform="translate(2,2) scale(1,1)">
            <path fill="none" stroke="#545400" d="M 16 88 L 74 88 L 84 98 L 84 126 L 16 126 L 16 88 L 16 88" stroke-miterlimit="10" />
        </g>
        <g transform="translate(2,2) scale(1,1)">
            <path fill="none" stroke="#545400" d="M 74 88 L 74 98 L 84 98 L 74 88" stroke-miterlimit="10" />
        </g>
        <g transform="translate(2,2) scale(1,1)">
            <g>
                <path fill="none" stroke="none" />
                <text fill="#000000" stroke="none" font-family="Arial" font-size="13px" font-style="normal" font-weight="normal" text-decoration="none" x="21" y="106">offers</text>
                <text fill="#000000" stroke="none" font-family="Arial" font-size="13px" font-style="normal" font-weight="normal" text-decoration="none" x="21" y="119">button</text>
            </g>
        </g>
        <g transform="translate(2,2) scale(1,1)">
            <rect fill="#C0C0C0" stroke="none" x="303" y="47" width="128.82080078125" height="39" opacity="0.2" />
        </g>
        <g transform="translate(2,2) scale(1,1)">
            <rect fill="#ebd8ff" stroke="none" x="296" y="40" width="128.82080078125" height="39" />
        </g>
        <g transform="translate(2,2) scale(1,1)">
            <path fill="none" stroke="#330066" d="M 296 40 L 424.82080078125 40 L 424.82080078125 79 L 296 79 L 296 40 Z Z" stroke-miterlimit="10" />
        </g>
        <g transform="translate(2,2) scale(1,1)">
            <g>
                <path fill="none" stroke="none" />
                <text fill="#330066" stroke="none" font-family="Arial" font-size="13px" font-style="normal" font-weight="bold" text-decoration="none" x="309.108642578125" y="59.5">PageOrchestrator</text>
            </g>
        </g>
        <g transform="translate(2,2) scale(1,1)">
            <path fill="none" stroke="#000000" d="M 361.5 80 L 361.5 776" stroke-miterlimit="10" stroke-dasharray="3" />
        </g>
        <g transform="translate(2,2) scale(1,1)">
            <rect fill="#C0C0C0" stroke="none" x="447" y="47" width="182.99169921875" height="39" opacity="0.2" />
        </g>
        <g transform="translate(2,2) scale(1,1)">
            <rect fill="#ebd8ff" stroke="none" x="440" y="40" width="182.99169921875" height="39" />
        </g>
        <g transform="translate(2,2) scale(1,1)">
            <path fill="none" stroke="#330066" d="M 440 40 L 622.99169921875 40 L 622.99169921875 79 L 440 79 L 440 40 Z Z" stroke-miterlimit="10" />
        </g>
        <g transform="translate(2,2) scale(1,1)">
            <g>
                <path fill="none" stroke="none" />
                <text fill="#330066" stroke="none" font-family="Arial" font-size="13px" font-style="normal" font-weight="bold" text-decoration="none" x="456.1142578125" y="59.5">OffersSectionOrchestrator</text>
            </g>
        </g>
        <g transform="translate(2,2) scale(1,1)">
            <path fill="none" stroke="#000000" d="M 532.5 80 L 532.5 778" stroke-miterlimit="10" stroke-dasharray="3" />
        </g>
        <g transform="translate(2,2) scale(1,1)">
            <path fill="#ffffd8" stroke="none" d="M 584 152 L 651.26806640625 152 L 661.26806640625 162 L 661.26806640625 190 L 584 190 L 584 152" />
        </g>
        <g transform="translate(2,2) scale(1,1)">
            <path fill="none" stroke="#545400" d="M 584 152 L 651.26806640625 152 L 661.26806640625 162 L 661.26806640625 190 L 584 190 L 584 152 L 584 152" stroke-miterlimit="10" />
        </g>
        <g transform="translate(2,2) scale(1,1)">
            <path fill="none" stroke="#545400" d="M 651.26806640625 152 L 651.26806640625 162 L 661.26806640625 162 L 651.26806640625 152" stroke-miterlimit="10" />
        </g>
        <g transform="translate(2,2) scale(1,1)">
            <g>
                <path fill="none" stroke="none" />
                <text fill="#000000" stroke="none" font-family="Arial" font-size="13px" font-style="normal" font-weight="normal" text-decoration="none" x="589" y="170">/offers</text>
            </g>
        </g>
        <g transform="translate(2,2) scale(1,1)">
            <g>
                <path fill="none" stroke="none" />
                <text fill="#000000" stroke="none" font-family="Arial" font-size="13px" font-style="normal" font-weight="normal" text-decoration="none" x="589" y="185">auction_id</text>
            </g>
        </g>
        <g transform="translate(2,2) scale(1,1)">
            <rect fill="#C0C0C0" stroke="none" x="1031" y="47" width="121.603515625" height="39" opacity="0.2" />
        </g>
        <g transform="translate(2,2) scale(1,1)">
            <rect fill="#ffd8d8" stroke="none" x="1024" y="40" width="121.603515625" height="39" />
        </g>
        <g transform="translate(2,2) scale(1,1)">
            <path fill="none" stroke="#700000" d="M 1024 40 L 1145.603515625 40 L 1145.603515625 79 L 1024 79 L 1024 40 Z Z" stroke-miterlimit="10" />
        </g>
        <g transform="translate(2,2) scale(1,1)">
            <g>
                <path fill="none" stroke="none" />
                <text fill="#700000" stroke="none" font-family="Arial" font-size="13px" font-style="normal" font-weight="bold" text-decoration="none" x="1036.029541015625" y="59.5">GetImageServlet</text>
            </g>
        </g>
        <g transform="translate(2,2) scale(1,1)">
            <path fill="none" stroke="#000000" d="M 1085.5 80 L 1085.5 776" stroke-miterlimit="10" stroke-dasharray="3" />
        </g>
        <g transform="translate(2,2) scale(1,1)">
            <path fill="#ffffd8" stroke="none" d="M 592 544 L 675.15625 544 L 685.15625 554 L 685.15625 582 L 592 582 L 592 544" />
        </g>
        <g transform="translate(2,2) scale(1,1)">
            <path fill="none" stroke="#545400" d="M 592 544 L 675.15625 544 L 685.15625 554 L 685.15625 582 L 592 582 L 592 544 L 592 544" stroke-miterlimit="10" />
        </g>
        <g transform="translate(2,2) scale(1,1)">
            <path fill="none" stroke="#545400" d="M 675.15625 544 L 675.15625 554 L 685.15625 554 L 675.15625 544" stroke-miterlimit="10" />
        </g>
        <g transform="translate(2,2) scale(1,1)">
            <g>
                <path fill="none" stroke="none" />
                <text fill="#000000" stroke="none" font-family="Arial" font-size="13px" font-style="normal" font-weight="normal" text-decoration="none" x="597" y="562">/get-image</text>
            </g>
        </g>
        <g transform="translate(2,2) scale(1,1)">
            <g>
                <path fill="none" stroke="none" />
                <text fill="#000000" stroke="none" font-family="Arial" font-size="13px" font-style="normal" font-weight="normal" text-decoration="none" x="597" y="577">image_name</text>
            </g>
        </g>
        <g transform="translate(2,2) scale(1,1)">
            <rect fill="#C0C0C0" stroke="none" x="679" y="47" width="115.8017578125" height="39" opacity="0.2" />
        </g>
        <g transform="translate(2,2) scale(1,1)">
            <rect fill="#e2e2e2" stroke="none" x="672" y="40" width="115.8017578125" height="39" />
        </g>
        <g transform="translate(2,2) scale(1,1)">
            <path fill="none" stroke="#383838" d="M 672 40 L 787.8017578125 40 L 787.8017578125 79 L 672 79 L 672 40 Z Z" stroke-miterlimit="10" />
        </g>
        <g transform="translate(2,2) scale(1,1)">
            <g>
                <path fill="none" stroke="none" />
                <text fill="#1c1c1c" stroke="none" font-family="Arial" font-size="13px" font-style="normal" font-weight="bold" text-decoration="none" x="684.013671875" y="59.5">CookieManager</text>
            </g>
        </g>
        <g transform="translate(2,2) scale(1,1)">
            <path fill="none" stroke="#000000" d="M 730.5 80 L 730.5 778" stroke-miterlimit="10" stroke-dasharray="3" />
        </g>
        <g transform="translate(2,2) scale(1,1)">
            <path fill="none" stroke="#000000" d="M 126 109 L 193 109" stroke-miterlimit="10" />
        </g>
        <g transform="translate(2,2) scale(1,1)">
            <path fill="#000000" stroke="none" d="M 182.83732514237585 113.20951775601598 L 193 109 L 182.83732514237585 104.79048224398402" />
        </g>
        <g transform="translate(2,2) scale(1,1)">
            <path fill="none" stroke="#000000" d="M 182.83732514237585 113.20951775601598 L 193 109 L 182.83732514237585 104.79048224398402 L 182.83732514237585 113.20951775601598" stroke-miterlimit="10" />
        </g>
        <g transform="translate(2,2) scale(1,1)">
            <g>
                <path fill="none" stroke="none" />
                <text fill="#000000" stroke="none" font-family="Arial" font-size="13px" font-style="normal" font-weight="normal" text-decoration="none" x="146.851318359375" y="105.5">click</text>
            </g>
        </g>
        <g transform="translate(2,2) scale(1,1)">
            <rect fill="#d8f2ff" stroke="none" x="193" y="109" width="13" height="28" />
        </g>
        <g transform="translate(2,2) scale(1,1)">
            <path fill="none" stroke="#003d5b" d="M 193 109 L 206 109 L 206 137 L 193 137 L 193 109 Z Z" stroke-miterlimit="10" />
        </g>
        <g transform="translate(2,2) scale(1,1)">
            <path fill="none" stroke="#000000" d="M 206 123 L 354 123" stroke-miterlimit="10" />
        </g>
        <g transform="translate(2,2) scale(1,1)">
            <path fill="#000000" stroke="none" d="M 343.83732514237585 127.20951775601598 L 354 123 L 343.83732514237585 118.79048224398402" />
        </g>
        <g transform="translate(2,2) scale(1,1)">
            <path fill="none" stroke="#000000" d="M 343.83732514237585 127.20951775601598 L 354 123 L 343.83732514237585 118.79048224398402 L 343.83732514237585 127.20951775601598" stroke-miterlimit="10" />
        </g>
        <g transform="translate(2,2) scale(1,1)">
            <g>
                <path fill="none" stroke="none" />
                <text fill="#000000" stroke="none" font-family="Arial" font-size="13px" font-style="normal" font-weight="normal" text-decoration="none" x="213.42724609375" y="119.5">switchTo(offersSection)</text>
            </g>
        </g>
        <g transform="translate(2,2) scale(1,1)">
            <rect fill="#ebd8ff" stroke="none" x="354" y="123" width="13" height="28" />
        </g>
        <g transform="translate(2,2) scale(1,1)">
            <path fill="none" stroke="#330066" d="M 354 123 L 367 123 L 367 151 L 354 151 L 354 123 Z Z" stroke-miterlimit="10" />
        </g>
        <g transform="translate(2,2) scale(1,1)">
            <path fill="none" stroke="#000000" d="M 367 128 L 525 128" stroke-miterlimit="10" />
        </g>
        <g transform="translate(2,2) scale(1,1)">
            <path fill="#000000" stroke="none" d="M 514.8373251423759 132.209517756016 L 525 128 L 514.8373251423758 123.79048224398402" />
        </g>
        <g transform="translate(2,2) scale(1,1)">
            <path fill="none" stroke="#000000" d="M 514.8373251423759 132.209517756016 L 525 128 L 514.8373251423758 123.79048224398402 L 514.8373251423759 132.209517756016" stroke-miterlimit="10" />
        </g>
        <g transform="translate(2,2) scale(1,1)">
            <g>
                <path fill="none" stroke="none" />
                <text fill="#000000" stroke="none" font-family="Arial" font-size="13px" font-style="normal" font-weight="normal" text-decoration="none" x="426.986328125" y="124.5">show()</text>
            </g>
        </g>
        <g transform="translate(2,2) scale(1,1)">
            <rect fill="#ebd8ff" stroke="none" x="525" y="128" width="13" height="28" />
        </g>
        <g transform="translate(2,2) scale(1,1)">
            <path fill="none" stroke="#330066" d="M 525 128 L 538 128 L 538 156 L 525 156 L 525 128 Z Z" stroke-miterlimit="10" />
        </g>
        <g transform="translate(2,2) scale(1,1)">
            <path fill="none" stroke="#000000" d="M 538 144 L 861 144" stroke-miterlimit="10" />
        </g>
        <g transform="translate(2,2) scale(1,1)">
            <path fill="#000000" stroke="none" d="M 850.8373251423759 148.209517756016 L 861 144 L 850.8373251423758 139.790482243984" />
        </g>
        <g transform="translate(2,2) scale(1,1)">
            <path fill="none" stroke="#000000" d="M 850.8373251423759 148.209517756016 L 861 144 L 850.8373251423758 139.790482243984 L 850.8373251423759 148.209517756016" stroke-miterlimit="10" />
        </g>
        <g transform="translate(2,2) scale(1,1)">
            <g>
                <path fill="none" stroke="none" />
                <text fill="#000000" stroke="none" font-family="Arial" font-size="13px" font-style="normal" font-weight="normal" text-decoration="none" x="593.5" y="138.5">AJAX GET</text>
            </g>
        </g>
        <g transform="translate(2,2) scale(1,1)">
            <rect fill="#ffd8d8" stroke="none" x="861" y="144" width="13" height="28" />
        </g>
        <g transform="translate(2,2) scale(1,1)">
            <path fill="none" stroke="#700000" d="M 861 144 L 874 144 L 874 172 L 861 172 L 861 144 Z Z" stroke-miterlimit="10" />
        </g>
        <g transform="translate(2,2) scale(1,1)">
            <path fill="none" stroke="#000000" d="M 874 160 L 1202 160" stroke-miterlimit="10" />
        </g>
        <g transform="translate(2,2) scale(1,1)">
            <path fill="#000000" stroke="none" d="M 1191.837325142376 164.209517756016 L 1202 160 L 1191.837325142376 155.790482243984" />
        </g>
        <g transform="translate(2,2) scale(1,1)">
            <path fill="none" stroke="#000000" d="M 1191.837325142376 164.209517756016 L 1202 160 L 1191.837325142376 155.790482243984 L 1191.837325142376 164.209517756016" stroke-miterlimit="10" />
        </g>
        <g transform="translate(2,2) scale(1,1)">
            <g>
                <path fill="none" stroke="none" />
                <text fill="#000000" stroke="none" font-family="Arial" font-size="13px" font-style="normal" font-weight="normal" text-decoration="none" x="893.807373046875" y="155.5">getAuctionDetails(auction_id)</text>
            </g>
        </g>
        <g transform="translate(2,2) scale(1,1)">
            <rect fill="#d8ffeb" stroke="none" x="1202" y="160" width="13" height="48" />
        </g>
        <g transform="translate(2,2) scale(1,1)">
            <path fill="none" stroke="#005128" d="M 1202 160 L 1215 160 L 1215 208 L 1202 208 L 1202 160 Z Z" stroke-miterlimit="10" />
        </g>
        <g transform="translate(2,2) scale(1,1)">
            <path fill="none" stroke="#000000" d="M 1202 200 L 874 200" stroke-miterlimit="10" />
        </g>
        <g transform="translate(2,2) scale(1,1)">
            <path fill="#000000" stroke="none" d="M 884.1626748576241 195.790482243984 L 874 200 L 884.1626748576241 204.209517756016" />
        </g>
        <g transform="translate(2,2) scale(1,1)">
            <path fill="none" stroke="#000000" d="M 884.1626748576241 195.790482243984 L 874 200 L 884.1626748576241 204.209517756016 L 884.1626748576241 195.790482243984" stroke-miterlimit="10" />
        </g>
        <g transform="translate(2,2) scale(1,1)">
            <g>
                <path fill="none" stroke="none" />
                <text fill="#000000" stroke="none" font-family="Arial" font-size="13px" font-style="normal" font-weight="normal" text-decoration="none" x="939.5" y="195.5">auctionDetails</text>
            </g>
        </g>
        <g transform="translate(2,2) scale(1,1)">
            <rect fill="#ffd8d8" stroke="none" x="861" y="200" width="13" height="72" />
        </g>
        <g transform="translate(2,2) scale(1,1)">
            <path fill="none" stroke="#700000" d="M 861 200 L 874 200 L 874 272 L 861 272 L 861 200 Z Z" stroke-miterlimit="10" />
        </g>
        <g transform="translate(2,2) scale(1,1)">
            <path fill="none" stroke="#000000" d="M 874 248 L 1303 248" stroke-miterlimit="10" />
        </g>
        <g transform="translate(2,2) scale(1,1)">
            <path fill="#000000" stroke="none" d="M 1292.837325142376 252.209517756016 L 1303 248 L 1292.837325142376 243.790482243984" />
        </g>
        <g transform="translate(2,2) scale(1,1)">
            <path fill="none" stroke="#000000" d="M 1292.837325142376 252.209517756016 L 1303 248 L 1292.837325142376 243.790482243984 L 1292.837325142376 252.209517756016" stroke-miterlimit="10" />
        </g>
        <g transform="translate(2,2) scale(1,1)">
            <g>
                <path fill="none" stroke="none" />
                <text fill="#000000" stroke="none" font-family="Arial" font-size="13px" font-style="normal" font-weight="normal" text-decoration="none" x="878.5" y="243.5">getItem(auctionDetails.getItemId())</text>
            </g>
        </g>
        <g transform="translate(2,2) scale(1,1)">
            <rect fill="#d8ffeb" stroke="none" x="1303" y="248" width="13" height="40" />
        </g>
        <g transform="translate(2,2) scale(1,1)">
            <path fill="none" stroke="#005128" d="M 1303 248 L 1316 248 L 1316 288 L 1303 288 L 1303 248 Z Z" stroke-miterlimit="10" />
        </g>
        <g transform="translate(2,2) scale(1,1)">
            <path fill="none" stroke="#000000" d="M 1303 280 L 874 280" stroke-miterlimit="10" />
        </g>
        <g transform="translate(2,2) scale(1,1)">
            <path fill="#000000" stroke="none" d="M 884.1626748576241 275.790482243984 L 874 280 L 884.1626748576241 284.209517756016" />
        </g>
        <g transform="translate(2,2) scale(1,1)">
            <path fill="none" stroke="#000000" d="M 884.1626748576241 275.790482243984 L 874 280 L 884.1626748576241 284.209517756016 L 884.1626748576241 275.790482243984" stroke-miterlimit="10" />
        </g>
        <g transform="translate(2,2) scale(1,1)">
            <g>
                <path fill="none" stroke="none" />
                <text fill="#000000" stroke="none" font-family="Arial" font-size="13px" font-style="normal" font-weight="normal" text-decoration="none" x="969.2099609375" y="275.5">item</text>
            </g>
        </g>
        <g transform="translate(2,2) scale(1,1)">
            <rect fill="#ffd8d8" stroke="none" x="861" y="280" width="13" height="80" />
        </g>
        <g transform="translate(2,2) scale(1,1)">
            <path fill="none" stroke="#700000" d="M 861 280 L 874 280 L 874 360 L 861 360 L 861 280 Z Z" stroke-miterlimit="10" />
        </g>
        <g transform="translate(2,2) scale(1,1)">
            <path fill="none" stroke="#000000" d="M 874 338 L 1397 338" stroke-miterlimit="10" />
        </g>
        <g transform="translate(2,2) scale(1,1)">
            <path fill="#000000" stroke="none" d="M 1386.837325142376 342.209517756016 L 1397 338 L 1386.837325142376 333.790482243984" />
        </g>
        <g transform="translate(2,2) scale(1,1)">
            <path fill="none" stroke="#000000" d="M 1386.837325142376 342.209517756016 L 1397 338 L 1386.837325142376 333.790482243984 L 1386.837325142376 342.209517756016" stroke-miterlimit="10" />
        </g>
        <g transform="translate(2,2) scale(1,1)">
            <g>
                <path fill="none" stroke="none" />
                <text fill="#000000" stroke="none" font-family="Arial" font-size="13px" font-style="normal" font-weight="normal" text-decoration="none" x="914.92724609375" y="331.5">getOffers(auction_id)</text>
            </g>
        </g>
        <g transform="translate(2,2) scale(1,1)">
            <rect fill="#d8ffeb" stroke="none" x="1397" y="338" width="13" height="38" />
        </g>
        <g transform="translate(2,2) scale(1,1)">
            <path fill="none" stroke="#005128" d="M 1397 338 L 1410 338 L 1410 376 L 1397 376 L 1397 338 Z Z" stroke-miterlimit="10" />
        </g>
        <g transform="translate(2,2) scale(1,1)">
            <path fill="none" stroke="#000000" d="M 1397 371 L 874 371" stroke-miterlimit="10" />
        </g>
        <g transform="translate(2,2) scale(1,1)">
            <path fill="#000000" stroke="none" d="M 884.1626748576241 366.790482243984 L 874 371 L 884.1626748576241 375.209517756016" />
        </g>
        <g transform="translate(2,2) scale(1,1)">
            <path fill="none" stroke="#000000" d="M 884.1626748576241 366.790482243984 L 874 371 L 884.1626748576241 375.209517756016 L 884.1626748576241 366.790482243984" stroke-miterlimit="10" />
        </g>
        <g transform="translate(2,2) scale(1,1)">
            <g>
                <path fill="none" stroke="none" />
                <text fill="#000000" stroke="none" font-family="Arial" font-size="13px" font-style="normal" font-weight="normal" text-decoration="none" x="957.3505859375" y="368.5">offers</text>
            </g>
        </g>
        <g transform="translate(2,2) scale(1,1)">
            <rect fill="#ffd8d8" stroke="none" x="861" y="371" width="13" height="45" />
        </g>
        <g transform="translate(2,2) scale(1,1)">
            <path fill="none" stroke="#700000" d="M 861 371 L 874 371 L 874 416 L 861 416 L 861 371 Z Z" stroke-miterlimit="10" />
        </g>
        <g transform="translate(2,2) scale(1,1)">
            <path fill="none" stroke="#000000" d="M 874 408 L 904 408 L 904 428 L 874 428" stroke-miterlimit="10" />
        </g>
        <g transform="translate(2,2) scale(1,1)">
            <path fill="#000000" stroke="none" d="M 884.1626748576241 423.790482243984 L 874 428 L 884.1626748576241 432.209517756016" />
        </g>
        <g transform="translate(2,2) scale(1,1)">
            <path fill="none" stroke="#000000" d="M 884.1626748576241 423.790482243984 L 874 428 L 884.1626748576241 432.209517756016 L 884.1626748576241 423.790482243984" stroke-miterlimit="10" />
        </g>
        <g transform="translate(2,2) scale(1,1)">
            <rect fill="#ffd8d8" stroke="none" x="861" y="428" width="13" height="36" />
        </g>
        <g transform="translate(2,2) scale(1,1)">
            <path fill="none" stroke="#700000" d="M 861 428 L 874 428 L 874 464 L 861 464 L 861 428 Z Z" stroke-miterlimit="10" />
        </g>
        <g transform="translate(2,2) scale(1,1)">
            <path fill="none" stroke="#000000" d="M 861 456 L 538 456" stroke-miterlimit="10" />
        </g>
        <g transform="translate(2,2) scale(1,1)">
            <path fill="#000000" stroke="none" d="M 548.1626748576241 451.790482243984 L 538 456 L 548.1626748576241 460.209517756016" />
        </g>
        <g transform="translate(2,2) scale(1,1)">
            <path fill="none" stroke="#000000" d="M 548.1626748576241 451.790482243984 L 538 456 L 548.1626748576241 460.209517756016 L 548.1626748576241 451.790482243984" stroke-miterlimit="10" />
        </g>
        <g transform="translate(2,2) scale(1,1)">
            <g>
                <path fill="none" stroke="none" />
                <text fill="#000000" stroke="none" font-family="Arial" font-size="13px" font-style="normal" font-weight="normal" text-decoration="none" x="625.5654296875" y="451.5">json</text>
            </g>
        </g>
        <g transform="translate(2,2) scale(1,1)">
            <rect fill="#ebd8ff" stroke="none" x="525" y="456" width="13" height="28" />
        </g>
        <g transform="translate(2,2) scale(1,1)">
            <path fill="none" stroke="#330066" d="M 525 456 L 538 456 L 538 484 L 525 484 L 525 456 Z Z" stroke-miterlimit="10" />
        </g>
        <g transform="translate(2,2) scale(1,1)">
            <path fill="none" stroke="#000000" d="M 538 472 L 568 472 L 568 492 L 538 492" stroke-miterlimit="10" />
        </g>
        <g transform="translate(2,2) scale(1,1)">
            <path fill="#000000" stroke="none" d="M 548.1626748576241 487.790482243984 L 538 492 L 548.1626748576241 496.209517756016" />
        </g>
        <g transform="translate(2,2) scale(1,1)">
            <path fill="none" stroke="#000000" d="M 548.1626748576241 487.790482243984 L 538 492 L 548.1626748576241 496.209517756016 L 548.1626748576241 487.790482243984" stroke-miterlimit="10" />
        </g>
        <g transform="translate(2,2) scale(1,1)">
            <g>
                <path fill="none" stroke="none" />
                <text fill="#000000" stroke="none" font-family="Arial" font-size="13px" font-style="normal" font-weight="normal" text-decoration="none" x="574.5" y="487.5">showAuction(json[0])</text>
            </g>
        </g>
        <g transform="translate(2,2) scale(1,1)">
            <rect fill="#ebd8ff" stroke="none" x="525" y="492" width="13" height="52" />
        </g>
        <g transform="translate(2,2) scale(1,1)">
            <path fill="none" stroke="#330066" d="M 525 492 L 538 492 L 538 544 L 525 544 L 525 492 Z Z" stroke-miterlimit="10" />
        </g>
        <g transform="translate(2,2) scale(1,1)">
            <path fill="none" stroke="#000000" d="M 538 536 L 1078 536" stroke-miterlimit="10" />
        </g>
        <g transform="translate(2,2) scale(1,1)">
            <path fill="#000000" stroke="none" d="M 1067.837325142376 540.209517756016 L 1078 536 L 1067.837325142376 531.790482243984" />
        </g>
        <g transform="translate(2,2) scale(1,1)">
            <path fill="none" stroke="#000000" d="M 1067.837325142376 540.209517756016 L 1078 536 L 1067.837325142376 531.790482243984 L 1067.837325142376 540.209517756016" stroke-miterlimit="10" />
        </g>
        <g transform="translate(2,2) scale(1,1)">
            <g>
                <path fill="none" stroke="none" />
                <text fill="#000000" stroke="none" font-family="Arial" font-size="13px" font-style="normal" font-weight="normal" text-decoration="none" x="604.08447265625" y="531.5">AJAX GET</text>
            </g>
        </g>
        <g transform="translate(2,2) scale(1,1)">
            <rect fill="#ffd8d8" stroke="none" x="1078" y="536" width="13" height="72" />
        </g>
        <g transform="translate(2,2) scale(1,1)">
            <path fill="none" stroke="#700000" d="M 1078 536 L 1091 536 L 1091 608 L 1078 608 L 1078 536 Z Z" stroke-miterlimit="10" />
        </g>
        <g transform="translate(2,2) scale(1,1)">
            <path fill="none" stroke="#000000" d="M 1078 598 L 538 598" stroke-miterlimit="10" />
        </g>
        <g transform="translate(2,2) scale(1,1)">
            <path fill="#000000" stroke="none" d="M 548.1626748576241 593.790482243984 L 538 598 L 548.1626748576241 602.209517756016" />
        </g>
        <g transform="translate(2,2) scale(1,1)">
            <path fill="none" stroke="#000000" d="M 548.1626748576241 593.790482243984 L 538 598 L 548.1626748576241 602.209517756016 L 548.1626748576241 593.790482243984" stroke-miterlimit="10" />
        </g>
        <g transform="translate(2,2) scale(1,1)">
            <g>
                <path fill="none" stroke="none" />
                <text fill="#000000" stroke="none" font-family="Arial" font-size="13px" font-style="normal" font-weight="normal" text-decoration="none" x="915.785888671875" y="596.5">image</text>
            </g>
        </g>
        <g transform="translate(2,2) scale(1,1)">
            <rect fill="#ebd8ff" stroke="none" x="525" y="598" width="13" height="28" />
        </g>
        <g transform="translate(2,2) scale(1,1)">
            <path fill="none" stroke="#330066" d="M 525 598 L 538 598 L 538 626 L 525 626 L 525 598 Z Z" stroke-miterlimit="10" />
        </g>
        <g transform="translate(2,2) scale(1,1)">
            <path fill="none" stroke="#000000" d="M 538 624 L 568 624 L 568 644 L 538 644" stroke-miterlimit="10" />
        </g>
        <g transform="translate(2,2) scale(1,1)">
            <path fill="#000000" stroke="none" d="M 548.1626748576241 639.790482243984 L 538 644 L 548.1626748576241 648.209517756016" />
        </g>
        <g transform="translate(2,2) scale(1,1)">
            <path fill="none" stroke="#000000" d="M 548.1626748576241 639.790482243984 L 538 644 L 548.1626748576241 648.209517756016 L 548.1626748576241 639.790482243984" stroke-miterlimit="10" />
        </g>
        <g transform="translate(2,2) scale(1,1)">
            <g>
                <path fill="none" stroke="none" />
                <text fill="#000000" stroke="none" font-family="Arial" font-size="13px" font-style="normal" font-weight="normal" text-decoration="none" x="573.5" y="639.5">showItem(json[1], image)</text>
            </g>
        </g>
        <g transform="translate(2,2) scale(1,1)">
            <rect fill="#ebd8ff" stroke="none" x="525" y="644" width="13" height="28" />
        </g>
        <g transform="translate(2,2) scale(1,1)">
            <path fill="none" stroke="#330066" d="M 525 644 L 538 644 L 538 672 L 525 672 L 525 644 Z Z" stroke-miterlimit="10" />
        </g>
        <g transform="translate(2,2) scale(1,1)">
            <path fill="none" stroke="#000000" d="M 538 664 L 568 664 L 568 684 L 538 684" stroke-miterlimit="10" />
        </g>
        <g transform="translate(2,2) scale(1,1)">
            <path fill="#000000" stroke="none" d="M 548.1626748576241 679.790482243984 L 538 684 L 548.1626748576241 688.209517756016" />
        </g>
        <g transform="translate(2,2) scale(1,1)">
            <path fill="none" stroke="#000000" d="M 548.1626748576241 679.790482243984 L 538 684 L 548.1626748576241 688.209517756016 L 548.1626748576241 679.790482243984" stroke-miterlimit="10" />
        </g>
        <g transform="translate(2,2) scale(1,1)">
            <g>
                <path fill="none" stroke="none" />
                <text fill="#000000" stroke="none" font-family="Arial" font-size="13px" font-style="normal" font-weight="normal" text-decoration="none" x="575.5" y="679.5">showOffersTable(json[2])</text>
            </g>
        </g>
        <g transform="translate(2,2) scale(1,1)">
            <rect fill="#ebd8ff" stroke="none" x="525" y="684" width="13" height="60" />
        </g>
        <g transform="translate(2,2) scale(1,1)">
            <path fill="none" stroke="#330066" d="M 525 684 L 538 684 L 538 744 L 525 744 L 525 684 Z Z" stroke-miterlimit="10" />
        </g>
        <g transform="translate(2,2) scale(1,1)">
            <path fill="none" stroke="#000000" d="M 538 736 L 723 736" stroke-miterlimit="10" />
        </g>
        <g transform="translate(2,2) scale(1,1)">
            <path fill="#000000" stroke="none" d="M 712.8373251423759 740.209517756016 L 723 736 L 712.8373251423758 731.790482243984" />
        </g>
        <g transform="translate(2,2) scale(1,1)">
            <path fill="none" stroke="#000000" d="M 712.8373251423759 740.209517756016 L 723 736 L 712.8373251423758 731.790482243984 L 712.8373251423759 740.209517756016" stroke-miterlimit="10" />
        </g>
        <g transform="translate(2,2) scale(1,1)">
            <g>
                <path fill="none" stroke="none" />
                <text fill="#000000" stroke="none" font-family="Arial" font-size="13px" font-style="normal" font-weight="normal" text-decoration="none" x="559.5" y="732.5">addRecentId(auction_id)</text>
            </g>
        </g>
        <g transform="translate(2,2) scale(1,1)">
            <rect fill="#e2e2e2" stroke="none" x="723" y="736" width="13" height="28" />
        </g>
        <g transform="translate(2,2) scale(1,1)">
            <path fill="none" stroke="#383838" d="M 723 736 L 736 736 L 736 764 L 723 764 L 723 736 Z Z" stroke-miterlimit="10" />
        </g>
    </g>
</svg>