<svg version="1.1" xmlns="http://www.w3.org/2000/svg" xmlns:xlink="http://www.w3.org/1999/xlink" width="804" height="444">
    <g>
        <g transform="translate(2,2) scale(1,1)">
            <path fill="none" stroke="#000000" d="M 8 8 L 792 8 L 792 432 L 8 432 L 8 8" stroke-miterlimit="10" />
        </g>
        <g transform="translate(2,2) scale(1,1)">
            <path fill="#ffffd8" stroke="none" d="M 8 8 L 8 30 L 203.6640625 30 L 214.6640625 19 L 214.6640625 8 L 8 8" />
        </g>
        <g transform="translate(2,2) scale(1,1)">
            <path fill="none" stroke="#000000" d="M 8 8 L 8 30 L 203.6640625 30 L 214.6640625 19 L 214.6640625 8 L 8 8 L 8 8" stroke-miterlimit="10" />
        </g>
        <g transform="translate(2,2) scale(1,1)">
            <g>
                <path fill="none" stroke="none" />
                <text fill="#000000" stroke="none" font-family="Arial" font-size="13px" font-style="normal" font-weight="normal" text-decoration="none" x="32.72998046875" y="25.5">[ENTRY POINT] Show Login</text>
            </g>
        </g>
        <g transform="translate(2,2) scale(1,1)">
            <g>
                <path fill="none" stroke="none" />
                <text fill="#000000" stroke="none" font-family="Arial" font-size="13px" font-style="normal" font-weight="bold" text-decoration="none" x="13" y="25.5">sd</text>
            </g>
        </g>
        <g transform="translate(2,2) scale(1,1)">
            <rect fill="#C0C0C0" stroke="none" x="199" y="47" width="132.40087890625" height="39" opacity="0.2" />
        </g>
        <g transform="translate(2,2) scale(1,1)">
            <rect fill="#ffd8d8" stroke="none" x="192" y="40" width="132.40087890625" height="39" />
        </g>
        <g transform="translate(2,2) scale(1,1)">
            <path fill="none" stroke="#700000" d="M 192 40 L 324.40087890625 40 L 324.40087890625 79 L 192 79 L 192 40 Z Z" stroke-miterlimit="10" />
        </g>
        <g transform="translate(2,2) scale(1,1)">
            <g>
                <path fill="none" stroke="none" />
                <text fill="#700000" stroke="none" font-family="Arial" font-size="13px" font-style="normal" font-weight="bold" text-decoration="none" x="205.806884765625" y="59.5">ShowLoginServlet</text>
            </g>
        </g>
        <g transform="translate(2,2) scale(1,1)">
            <path fill="none" stroke="#000000" d="M 259.5 80 L 259.5 426" stroke-miterlimit="10" stroke-dasharray="3" />
        </g>
        <g transform="translate(2,2) scale(1,1)">
            <path fill="#000000" stroke="none" d="M 136 143.5 C 136 139.6340064 139.1340064 136.5 143 136.5 C 146.8659936 136.5 150 139.6340064 150 143.5 C 150 147.3659936 146.8659936 150.5 143 150.5 C 139.1340064 150.5 136 147.3659936 136 143.5 Z" />
        </g>
        <g transform="translate(2,2) scale(1,1)">
            <path fill="#ffffd8" stroke="none" d="M 24 72 L 101.3671875 72 L 111.3671875 82 L 111.3671875 230 L 24 230 L 24 72" />
        </g>
        <g transform="translate(2,2) scale(1,1)">
            <path fill="none" stroke="#664c00" d="M 24 72 L 101.3671875 72 L 111.3671875 82 L 111.3671875 230 L 24 230 L 24 72 L 24 72" stroke-miterlimit="10" />
        </g>
        <g transform="translate(2,2) scale(1,1)">
            <path fill="none" stroke="#664c00" d="M 101.3671875 72 L 101.3671875 82 L 111.3671875 82 L 101.3671875 72" stroke-miterlimit="10" />
        </g>
        <g transform="translate(2,2) scale(1,1)">
            <g>
                <path fill="none" stroke="none" />
                <text fill="#000000" stroke="none" font-family="Arial" font-size="13px" font-style="normal" font-weight="normal" text-decoration="none" x="29" y="90">GET:</text>
            </g>
        </g>
        <g transform="translate(2,2) scale(1,1)">
            <g>
                <path fill="none" stroke="none" />
                <text fill="#000000" stroke="none" font-family="Arial" font-size="13px" font-style="normal" font-weight="normal" text-decoration="none" x="29" y="105">/login</text>
            </g>
        </g>
        <g transform="translate(2,2) scale(1,1)">
            <g>
                <path fill="none" stroke="none" />
                <text fill="#000000" stroke="none" font-family="Arial" font-size="13px" font-style="normal" font-weight="normal" text-decoration="none" x="29" y="120"></text>
            </g>
        </g>
        <g transform="translate(2,2) scale(1,1)">
            <g>
                <path fill="none" stroke="none" />
                <text fill="#000000" stroke="none" font-family="Arial" font-size="13px" font-style="normal" font-weight="normal" text-decoration="none" x="29" y="135">FROM:</text>
            </g>
        </g>
        <g transform="translate(2,2) scale(1,1)">
            <g>
                <path fill="none" stroke="none" />
                <text fill="#000000" stroke="none" font-family="Arial" font-size="13px" font-style="normal" font-weight="normal" text-decoration="none" x="29" y="150">login.html</text>
            </g>
        </g>
        <g transform="translate(2,2) scale(1,1)">
            <g>
                <path fill="none" stroke="none" />
                <text fill="#000000" stroke="none" font-family="Arial" font-size="13px" font-style="normal" font-weight="normal" text-decoration="none" x="29" y="165">home.html</text>
            </g>
        </g>
        <g transform="translate(2,2) scale(1,1)">
            <g>
                <path fill="none" stroke="none" />
                <text fill="#000000" stroke="none" font-family="Arial" font-size="13px" font-style="normal" font-weight="normal" text-decoration="none" x="29" y="180">buy.html</text>
            </g>
        </g>
        <g transform="translate(2,2) scale(1,1)">
            <g>
                <path fill="none" stroke="none" />
                <text fill="#000000" stroke="none" font-family="Arial" font-size="13px" font-style="normal" font-weight="normal" text-decoration="none" x="29" y="195">sell.html</text>
            </g>
        </g>
        <g transform="translate(2,2) scale(1,1)">
            <g>
                <path fill="none" stroke="none" />
                <text fill="#000000" stroke="none" font-family="Arial" font-size="13px" font-style="normal" font-weight="normal" text-decoration="none" x="29" y="210">details.html</text>
            </g>
        </g>
        <g transform="translate(2,2) scale(1,1)">
            <g>
                <path fill="none" stroke="none" />
                <text fill="#000000" stroke="none" font-family="Arial" font-size="13px" font-style="normal" font-weight="normal" text-decoration="none" x="29" y="225">offers.html</text>
            </g>
        </g>
        <g transform="translate(2,2) scale(1,1)">
            <rect fill="#C0C0C0" stroke="none" x="447" y="47" width="71.736328125" height="39" opacity="0.2" />
        </g>
        <g transform="translate(2,2) scale(1,1)">
            <rect fill="#e2e2e2" stroke="none" x="440" y="40" width="71.736328125" height="39" />
        </g>
        <g transform="translate(2,2) scale(1,1)">
            <path fill="none" stroke="#383838" d="M 440 40 L 511.736328125 40 L 511.736328125 79 L 440 79 L 440 40 Z Z" stroke-miterlimit="10" />
        </g>
        <g transform="translate(2,2) scale(1,1)">
            <g>
                <path fill="none" stroke="none" />
                <text fill="#383838" stroke="none" font-family="Arial" font-size="13px" font-style="normal" font-weight="bold" text-decoration="none" x="452.74365234375" y="59.5">Session</text>
            </g>
        </g>
        <g transform="translate(2,2) scale(1,1)">
            <path fill="none" stroke="#000000" d="M 476.5 80 L 476.5 424" stroke-miterlimit="10" stroke-dasharray="3" />
        </g>
        <g transform="translate(2,2) scale(1,1)">
            <rect fill="#C0C0C0" stroke="none" x="551" y="47" width="71.736328125" height="39" opacity="0.2" />
        </g>
        <g transform="translate(2,2) scale(1,1)">
            <rect fill="#e2e2e2" stroke="none" x="544" y="40" width="71.736328125" height="39" />
        </g>
        <g transform="translate(2,2) scale(1,1)">
            <path fill="none" stroke="#383838" d="M 544 40 L 615.736328125 40 L 615.736328125 79 L 544 79 L 544 40 Z Z" stroke-miterlimit="10" />
        </g>
        <g transform="translate(2,2) scale(1,1)">
            <g>
                <path fill="none" stroke="none" />
                <text fill="#383838" stroke="none" font-family="Arial" font-size="13px" font-style="normal" font-weight="bold" text-decoration="none" x="557.46728515625" y="59.5">Context</text>
            </g>
        </g>
        <g transform="translate(2,2) scale(1,1)">
            <path fill="none" stroke="#000000" d="M 580.5 80 L 580.5 424" stroke-miterlimit="10" stroke-dasharray="3" />
        </g>
        <g transform="translate(2,2) scale(1,1)">
            <rect fill="#C0C0C0" stroke="none" x="655" y="47" width="118.4423828125" height="39" opacity="0.2" />
        </g>
        <g transform="translate(2,2) scale(1,1)">
            <rect fill="#d8f2ff" stroke="none" x="648" y="40" width="118.4423828125" height="39" />
        </g>
        <g transform="translate(2,2) scale(1,1)">
            <path fill="none" stroke="#003d5b" d="M 648 40 L 766.4423828125 40 L 766.4423828125 79 L 648 79 L 648 40 Z Z" stroke-miterlimit="10" />
        </g>
        <g transform="translate(2,2) scale(1,1)">
            <g>
                <path fill="none" stroke="none" />
                <text fill="#003d5b" stroke="none" font-family="Arial" font-size="13px" font-style="normal" font-weight="bold" text-decoration="none" x="660.607177734375" y="59.5">TemplateEngine</text>
            </g>
        </g>
        <g transform="translate(2,2) scale(1,1)">
            <path fill="none" stroke="#000000" d="M 708.5 80 L 708.5 426" stroke-miterlimit="10" stroke-dasharray="3" />
        </g>
        <g transform="translate(2,2) scale(1,1)">
            <path fill="none" stroke="#000000" d="M 150 144 L 252 144" stroke-miterlimit="10" />
        </g>
        <g transform="translate(2,2) scale(1,1)">
            <path fill="#000000" stroke="none" d="M 241.83732514237585 148.209517756016 L 252 144 L 241.83732514237585 139.790482243984" />
        </g>
        <g transform="translate(2,2) scale(1,1)">
            <path fill="none" stroke="#000000" d="M 241.83732514237585 148.209517756016 L 252 144 L 241.83732514237585 139.790482243984 L 241.83732514237585 148.209517756016" stroke-miterlimit="10" />
        </g>
        <g transform="translate(2,2) scale(1,1)">
            <g>
                <path fill="none" stroke="none" />
                <text fill="#000000" stroke="none" font-family="Arial" font-size="13px" font-style="normal" font-weight="normal" text-decoration="none" x="178.84814453125" y="140.5">redirect</text>
            </g>
        </g>
        <g transform="translate(2,2) scale(1,1)">
            <rect fill="#ffd8d8" stroke="none" x="252" y="144" width="13" height="56" />
        </g>
        <g transform="translate(2,2) scale(1,1)">
            <path fill="none" stroke="#700000" d="M 252 144 L 265 144 L 265 200 L 252 200 L 252 144 Z Z" stroke-miterlimit="10" />
        </g>
        <g transform="translate(2,2) scale(1,1)">
            <path fill="none" stroke="#000000" d="M 265 168 L 469 168" stroke-miterlimit="10" />
        </g>
        <g transform="translate(2,2) scale(1,1)">
            <path fill="#000000" stroke="none" d="M 458.83732514237585 172.209517756016 L 469 168 L 458.83732514237585 163.790482243984" />
        </g>
        <g transform="translate(2,2) scale(1,1)">
            <path fill="none" stroke="#000000" d="M 458.83732514237585 172.209517756016 L 469 168 L 458.83732514237585 163.790482243984 L 458.83732514237585 172.209517756016" stroke-miterlimit="10" />
        </g>
        <g transform="translate(2,2) scale(1,1)">
            <g>
                <path fill="none" stroke="none" />
                <text fill="#000000" stroke="none" font-family="Arial" font-size="13px" font-style="normal" font-weight="normal" text-decoration="none" x="283.005859375" y="163.5">getAttribute("errorMessage")</text>
            </g>
        </g>
        <g transform="translate(2,2) scale(1,1)">
            <rect fill="#e2e2e2" stroke="none" x="469" y="168" width="13" height="48" />
        </g>
        <g transform="translate(2,2) scale(1,1)">
            <path fill="none" stroke="#383838" d="M 469 168 L 482 168 L 482 216 L 469 216 L 469 168 Z Z" stroke-miterlimit="10" />
        </g>
        <g transform="translate(2,2) scale(1,1)">
            <path fill="none" stroke="#000000" d="M 469 208 L 265 208" stroke-miterlimit="10" />
        </g>
        <g transform="translate(2,2) scale(1,1)">
            <path fill="#000000" stroke="none" d="M 275.16267485762415 203.790482243984 L 265 208 L 275.16267485762415 212.209517756016" />
        </g>
        <g transform="translate(2,2) scale(1,1)">
            <path fill="none" stroke="#000000" d="M 275.16267485762415 203.790482243984 L 265 208 L 275.16267485762415 212.209517756016 L 275.16267485762415 203.790482243984" stroke-miterlimit="10" />
        </g>
        <g transform="translate(2,2) scale(1,1)">
            <g>
                <path fill="none" stroke="none" />
                <text fill="#000000" stroke="none" font-family="Arial" font-size="13px" font-style="normal" font-weight="normal" text-decoration="none" x="324.5" y="203.5">errorMessage</text>
            </g>
        </g>
        <g transform="translate(2,2) scale(1,1)">
            <rect fill="#ffd8d8" stroke="none" x="252" y="208" width="13" height="184" />
        </g>
        <g transform="translate(2,2) scale(1,1)">
            <path fill="none" stroke="#700000" d="M 252 208 L 265 208 L 265 392 L 252 392 L 252 208 Z Z" stroke-miterlimit="10" />
        </g>
        <g transform="translate(2,2) scale(1,1)">
            <path fill="none" stroke="#000000" d="M 265 258 L 469 258" stroke-miterlimit="10" />
        </g>
        <g transform="translate(2,2) scale(1,1)">
            <path fill="#000000" stroke="none" d="M 458.83732514237585 262.209517756016 L 469 258 L 458.83732514237585 253.790482243984" />
        </g>
        <g transform="translate(2,2) scale(1,1)">
            <path fill="none" stroke="#000000" d="M 458.83732514237585 262.209517756016 L 469 258 L 458.83732514237585 253.790482243984 L 458.83732514237585 262.209517756016" stroke-miterlimit="10" />
        </g>
        <g transform="translate(2,2) scale(1,1)">
            <g>
                <path fill="none" stroke="none" />
                <text fill="#000000" stroke="none" font-family="Arial" font-size="13px" font-style="normal" font-weight="normal" text-decoration="none" x="272.5" y="254.5">removeAttribute("errorMessage")</text>
            </g>
        </g>
        <g transform="translate(2,2) scale(1,1)">
            <rect fill="#e2e2e2" stroke="none" x="469" y="258" width="13" height="28" />
        </g>
        <g transform="translate(2,2) scale(1,1)">
            <path fill="none" stroke="#383838" d="M 469 258 L 482 258 L 482 286 L 469 286 L 469 258 Z Z" stroke-miterlimit="10" />
        </g>
        <g transform="translate(2,2) scale(1,1)">
            <path fill="none" stroke="#000000" d="M 265 320 L 573 320" stroke-miterlimit="10" />
        </g>
        <g transform="translate(2,2) scale(1,1)">
            <path fill="#000000" stroke="none" d="M 562.8373251423759 324.209517756016 L 573 320 L 562.8373251423758 315.790482243984" />
        </g>
        <g transform="translate(2,2) scale(1,1)">
            <path fill="none" stroke="#000000" d="M 562.8373251423759 324.209517756016 L 573 320 L 562.8373251423758 315.790482243984 L 562.8373251423759 324.209517756016" stroke-miterlimit="10" />
        </g>
        <g transform="translate(2,2) scale(1,1)">
            <g>
                <path fill="none" stroke="none" />
                <text fill="#000000" stroke="none" font-family="Arial" font-size="13px" font-style="normal" font-weight="normal" text-decoration="none" x="294.5" y="315.5">setVariable(errorMessage)</text>
            </g>
        </g>
        <g transform="translate(2,2) scale(1,1)">
            <rect fill="#e2e2e2" stroke="none" x="573" y="320" width="13" height="28" />
        </g>
        <g transform="translate(2,2) scale(1,1)">
            <path fill="none" stroke="#383838" d="M 573 320 L 586 320 L 586 348 L 573 348 L 573 320 Z Z" stroke-miterlimit="10" />
        </g>
        <g transform="translate(2,2) scale(1,1)">
            <path fill="none" stroke="#000000" d="M 265 384 L 701 384" stroke-miterlimit="10" />
        </g>
        <g transform="translate(2,2) scale(1,1)">
            <path fill="#000000" stroke="none" d="M 690.8373251423759 388.209517756016 L 701 384 L 690.8373251423758 379.790482243984" />
        </g>
        <g transform="translate(2,2) scale(1,1)">
            <path fill="none" stroke="#000000" d="M 690.8373251423759 388.209517756016 L 701 384 L 690.8373251423758 379.790482243984 L 690.8373251423759 388.209517756016" stroke-miterlimit="10" />
        </g>
        <g transform="translate(2,2) scale(1,1)">
            <g>
                <path fill="none" stroke="none" />
                <text fill="#000000" stroke="none" font-family="Arial" font-size="13px" font-style="normal" font-weight="normal" text-decoration="none" x="313.0263671875" y="379.5">process("login.html")</text>
            </g>
        </g>
        <g transform="translate(2,2) scale(1,1)">
            <rect fill="#d8f2ff" stroke="none" x="701" y="384" width="13" height="28" />
        </g>
        <g transform="translate(2,2) scale(1,1)">
            <path fill="none" stroke="#003d5b" d="M 701 384 L 714 384 L 714 412 L 701 412 L 701 384 Z Z" stroke-miterlimit="10" />
        </g>
    </g>
</svg>