<svg version="1.1" xmlns="http://www.w3.org/2000/svg" xmlns:xlink="http://www.w3.org/1999/xlink" width="1036" height="964">
    <g>
        <g transform="translate(2,2) scale(1,1)">
            <path fill="none" stroke="#000000" d="M 8 8 L 1024 8 L 1024 952 L 8 952 L 8 8" stroke-miterlimit="10" />
        </g>
        <g transform="translate(2,2) scale(1,1)">
            <path fill="#ffffd8" stroke="none" d="M 8 8 L 8 30 L 123.7216796875 30 L 134.7216796875 19 L 134.7216796875 8 L 8 8" />
        </g>
        <g transform="translate(2,2) scale(1,1)">
            <path fill="none" stroke="#000000" d="M 8 8 L 8 30 L 123.7216796875 30 L 134.7216796875 19 L 134.7216796875 8 L 8 8 L 8 8" stroke-miterlimit="10" />
        </g>
        <g transform="translate(2,2) scale(1,1)">
            <g>
                <path fill="none" stroke="none" />
                <text fill="#000000" stroke="none" font-family="Arial" font-size="13px" font-style="normal" font-weight="normal" text-decoration="none" x="32.72998046875" y="25.5">Create Auction</text>
            </g>
        </g>
        <g transform="translate(2,2) scale(1,1)">
            <g>
                <path fill="none" stroke="none" />
                <text fill="#000000" stroke="none" font-family="Arial" font-size="13px" font-style="normal" font-weight="bold" text-decoration="none" x="13" y="25.5">sd</text>
            </g>
        </g>
        <g transform="translate(2,2) scale(1,1)">
            <rect fill="#C0C0C0" stroke="none" x="191" y="47" width="151.208984375" height="39" opacity="0.2" />
        </g>
        <g transform="translate(2,2) scale(1,1)">
            <rect fill="#ffd8d8" stroke="none" x="184" y="40" width="151.208984375" height="39" />
        </g>
        <g transform="translate(2,2) scale(1,1)">
            <path fill="none" stroke="#700000" d="M 184 40 L 335.208984375 40 L 335.208984375 79 L 184 79 L 184 40 Z Z" stroke-miterlimit="10" />
        </g>
        <g transform="translate(2,2) scale(1,1)">
            <g>
                <path fill="none" stroke="none" />
                <text fill="#700000" stroke="none" font-family="Arial" font-size="13px" font-style="normal" font-weight="bold" text-decoration="none" x="198.1845703125" y="59.5">CreateAuctionServlet</text>
            </g>
        </g>
        <g transform="translate(2,2) scale(1,1)">
            <path fill="none" stroke="#000000" d="M 260.5 80 L 260.5 952" stroke-miterlimit="10" stroke-dasharray="3" />
        </g>
        <g transform="translate(2,2) scale(1,1)">
            <path fill="#000000" stroke="none" d="M 160 141.5 C 160 137.6340064 163.1340064 134.5 167 134.5 C 170.8659936 134.5 174 137.6340064 174 141.5 C 174 145.3659936 170.8659936 148.5 167 148.5 C 163.1340064 148.5 160 145.3659936 160 141.5 Z" />
        </g>
        <g transform="translate(2,2) scale(1,1)">
            <path fill="#ffffd8" stroke="none" d="M 24 72 L 141 72 L 151 82 L 151 260 L 24 260 L 24 72" />
        </g>
        <g transform="translate(2,2) scale(1,1)">
            <path fill="none" stroke="#545400" d="M 24 72 L 141 72 L 151 82 L 151 260 L 24 260 L 24 72 L 24 72" stroke-miterlimit="10" />
        </g>
        <g transform="translate(2,2) scale(1,1)">
            <path fill="none" stroke="#545400" d="M 141 72 L 141 82 L 151 82 L 141 72" stroke-miterlimit="10" />
        </g>
        <g transform="translate(2,2) scale(1,1)">
            <g>
                <path fill="none" stroke="none" />
                <text fill="#000000" stroke="none" font-family="Arial" font-size="13px" font-style="normal" font-weight="normal" text-decoration="none" x="29" y="90">POST:</text>
            </g>
        </g>
        <g transform="translate(2,2) scale(1,1)">
            <g>
                <path fill="none" stroke="none" />
                <text fill="#000000" stroke="none" font-family="Arial" font-size="13px" font-style="normal" font-weight="normal" text-decoration="none" x="29" y="105">/create</text>
            </g>
        </g>
        <g transform="translate(2,2) scale(1,1)">
            <g>
                <path fill="none" stroke="none" />
                <text fill="#000000" stroke="none" font-family="Arial" font-size="13px" font-style="normal" font-weight="normal" text-decoration="none" x="29" y="120">item_code</text>
            </g>
        </g>
        <g transform="translate(2,2) scale(1,1)">
            <g>
                <path fill="none" stroke="none" />
                <text fill="#000000" stroke="none" font-family="Arial" font-size="13px" font-style="normal" font-weight="normal" text-decoration="none" x="29" y="135">idem_name</text>
            </g>
        </g>
        <g transform="translate(2,2) scale(1,1)">
            <g>
                <path fill="none" stroke="none" />
                <text fill="#000000" stroke="none" font-family="Arial" font-size="13px" font-style="normal" font-weight="normal" text-decoration="none" x="29" y="150">item_description</text>
            </g>
        </g>
        <g transform="translate(2,2) scale(1,1)">
            <g>
                <path fill="none" stroke="none" />
                <text fill="#000000" stroke="none" font-family="Arial" font-size="13px" font-style="normal" font-weight="normal" text-decoration="none" x="29" y="165">item_image</text>
            </g>
        </g>
        <g transform="translate(2,2) scale(1,1)">
            <g>
                <path fill="none" stroke="none" />
                <text fill="#000000" stroke="none" font-family="Arial" font-size="13px" font-style="normal" font-weight="normal" text-decoration="none" x="29" y="180">base_price</text>
            </g>
        </g>
        <g transform="translate(2,2) scale(1,1)">
            <g>
                <path fill="none" stroke="none" />
                <text fill="#000000" stroke="none" font-family="Arial" font-size="13px" font-style="normal" font-weight="normal" text-decoration="none" x="29" y="195">minimum_rise</text>
            </g>
        </g>
        <g transform="translate(2,2) scale(1,1)">
            <g>
                <path fill="none" stroke="none" />
                <text fill="#000000" stroke="none" font-family="Arial" font-size="13px" font-style="normal" font-weight="normal" text-decoration="none" x="29" y="210">expire_datetime</text>
            </g>
        </g>
        <g transform="translate(2,2) scale(1,1)">
            <g>
                <path fill="none" stroke="none" />
                <text fill="#000000" stroke="none" font-family="Arial" font-size="13px" font-style="normal" font-weight="normal" text-decoration="none" x="29" y="225"></text>
            </g>
        </g>
        <g transform="translate(2,2) scale(1,1)">
            <g>
                <path fill="none" stroke="none" />
                <text fill="#000000" stroke="none" font-family="Arial" font-size="13px" font-style="normal" font-weight="normal" text-decoration="none" x="29" y="240">FROM:</text>
            </g>
        </g>
        <g transform="translate(2,2) scale(1,1)">
            <g>
                <path fill="none" stroke="none" />
                <text fill="#000000" stroke="none" font-family="Arial" font-size="13px" font-style="normal" font-weight="normal" text-decoration="none" x="29" y="255">sell.html</text>
            </g>
        </g>
        <g transform="translate(2,2) scale(1,1)">
            <rect fill="#C0C0C0" stroke="none" x="455" y="47" width="154.7890625" height="39" opacity="0.2" />
        </g>
        <g transform="translate(2,2) scale(1,1)">
            <rect fill="#d8ffeb" stroke="none" x="448" y="40" width="154.7890625" height="39" />
        </g>
        <g transform="translate(2,2) scale(1,1)">
            <path fill="none" stroke="#005128" d="M 448 40 L 602.7890625 40 L 602.7890625 79 L 448 79 L 448 40 Z Z" stroke-miterlimit="10" />
        </g>
        <g transform="translate(2,2) scale(1,1)">
            <g>
                <path fill="none" stroke="none" />
                <text fill="#005128" stroke="none" font-family="Arial" font-size="13px" font-style="normal" font-weight="bold" text-decoration="none" x="463.3779296875" y="59.5">AuctionFormValidator</text>
            </g>
        </g>
        <g transform="translate(2,2) scale(1,1)">
            <path fill="none" stroke="#000000" d="M 526.5 80 L 526.5 952" stroke-miterlimit="10" stroke-dasharray="3" />
        </g>
        <g transform="translate(2,2) scale(1,1)">
            <g>
                <path fill="none" stroke="none" />
                <text fill="#000000" stroke="none" font-family="Arial" font-size="11px" font-style="normal" font-weight="normal" text-decoration="none" x="341" y="120">validate(</text>
            </g>
        </g>
        <g transform="translate(2,2) scale(1,1)">
            <g>
                <path fill="none" stroke="none" />
                <text fill="#000000" stroke="none" font-family="Arial" font-size="11px" font-style="normal" font-weight="normal" text-decoration="none" x="341" y="133">  item_code, </text>
            </g>
        </g>
        <g transform="translate(2,2) scale(1,1)">
            <g>
                <path fill="none" stroke="none" />
                <text fill="#000000" stroke="none" font-family="Arial" font-size="11px" font-style="normal" font-weight="normal" text-decoration="none" x="341" y="146">  item_name, </text>
            </g>
        </g>
        <g transform="translate(2,2) scale(1,1)">
            <g>
                <path fill="none" stroke="none" />
                <text fill="#000000" stroke="none" font-family="Arial" font-size="11px" font-style="normal" font-weight="normal" text-decoration="none" x="341" y="159">  item_description, </text>
            </g>
        </g>
        <g transform="translate(2,2) scale(1,1)">
            <g>
                <path fill="none" stroke="none" />
                <text fill="#000000" stroke="none" font-family="Arial" font-size="11px" font-style="normal" font-weight="normal" text-decoration="none" x="341" y="172">  item_image, </text>
            </g>
        </g>
        <g transform="translate(2,2) scale(1,1)">
            <g>
                <path fill="none" stroke="none" />
                <text fill="#000000" stroke="none" font-family="Arial" font-size="11px" font-style="normal" font-weight="normal" text-decoration="none" x="341" y="185">  base_price, </text>
            </g>
        </g>
        <g transform="translate(2,2) scale(1,1)">
            <g>
                <path fill="none" stroke="none" />
                <text fill="#000000" stroke="none" font-family="Arial" font-size="11px" font-style="normal" font-weight="normal" text-decoration="none" x="341" y="198">  minimum_rise, </text>
            </g>
        </g>
        <g transform="translate(2,2) scale(1,1)">
            <g>
                <path fill="none" stroke="none" />
                <text fill="#000000" stroke="none" font-family="Arial" font-size="11px" font-style="normal" font-weight="normal" text-decoration="none" x="341" y="211">  expire_datetime</text>
            </g>
        </g>
        <g transform="translate(2,2) scale(1,1)">
            <g>
                <path fill="none" stroke="none" />
                <text fill="#000000" stroke="none" font-family="Arial" font-size="11px" font-style="normal" font-weight="normal" text-decoration="none" x="341" y="224">)</text>
            </g>
        </g>
        <g transform="translate(2,2) scale(1,1)">
            <rect fill="#C0C0C0" stroke="none" x="639" y="47" width="71.736328125" height="39" opacity="0.2" />
        </g>
        <g transform="translate(2,2) scale(1,1)">
            <rect fill="#e2e2e2" stroke="none" x="632" y="40" width="71.736328125" height="39" />
        </g>
        <g transform="translate(2,2) scale(1,1)">
            <path fill="none" stroke="#383838" d="M 632 40 L 703.736328125 40 L 703.736328125 79 L 632 79 L 632 40 Z Z" stroke-miterlimit="10" />
        </g>
        <g transform="translate(2,2) scale(1,1)">
            <g>
                <path fill="none" stroke="none" />
                <text fill="#383838" stroke="none" font-family="Arial" font-size="13px" font-style="normal" font-weight="bold" text-decoration="none" x="644.74365234375" y="59.5">Session</text>
            </g>
        </g>
        <g transform="translate(2,2) scale(1,1)">
            <path fill="none" stroke="#000000" d="M 668.5 80 L 668.5 952" stroke-miterlimit="10" stroke-dasharray="3" />
        </g>
        <g transform="translate(2,2) scale(1,1)">
            <g>
                <path fill="none" stroke="none" />
                <text fill="#000000" stroke="none" font-family="Arial" font-size="11px" font-style="normal" font-weight="normal" text-decoration="none" x="301" y="336">item = new Item(</text>
            </g>
        </g>
        <g transform="translate(2,2) scale(1,1)">
            <g>
                <path fill="none" stroke="none" />
                <text fill="#000000" stroke="none" font-family="Arial" font-size="11px" font-style="normal" font-weight="normal" text-decoration="none" x="301" y="349"> item_code, </text>
            </g>
        </g>
        <g transform="translate(2,2) scale(1,1)">
            <g>
                <path fill="none" stroke="none" />
                <text fill="#000000" stroke="none" font-family="Arial" font-size="11px" font-style="normal" font-weight="normal" text-decoration="none" x="301" y="362">  item_name, </text>
            </g>
        </g>
        <g transform="translate(2,2) scale(1,1)">
            <g>
                <path fill="none" stroke="none" />
                <text fill="#000000" stroke="none" font-family="Arial" font-size="11px" font-style="normal" font-weight="normal" text-decoration="none" x="301" y="375">  item_description,</text>
            </g>
        </g>
        <g transform="translate(2,2) scale(1,1)">
            <g>
                <path fill="none" stroke="none" />
                <text fill="#000000" stroke="none" font-family="Arial" font-size="11px" font-style="normal" font-weight="normal" text-decoration="none" x="301" y="388">  validator.getItemImageName()</text>
            </g>
        </g>
        <g transform="translate(2,2) scale(1,1)">
            <g>
                <path fill="none" stroke="none" />
                <text fill="#000000" stroke="none" font-family="Arial" font-size="11px" font-style="normal" font-weight="normal" text-decoration="none" x="301" y="401">)</text>
            </g>
        </g>
        <g transform="translate(2,2) scale(1,1)">
            <rect fill="#C0C0C0" stroke="none" x="743" y="47" width="74.6181640625" height="39" opacity="0.2" />
        </g>
        <g transform="translate(2,2) scale(1,1)">
            <rect fill="#d8ffeb" stroke="none" x="736" y="40" width="74.6181640625" height="39" />
        </g>
        <g transform="translate(2,2) scale(1,1)">
            <path fill="none" stroke="#005128" d="M 736 40 L 810.6181640625 40 L 810.6181640625 79 L 736 79 L 736 40 Z Z" stroke-miterlimit="10" />
        </g>
        <g transform="translate(2,2) scale(1,1)">
            <g>
                <path fill="none" stroke="none" />
                <text fill="#005128" stroke="none" font-family="Arial" font-size="13px" font-style="normal" font-weight="bold" text-decoration="none" x="746.582275390625" y="59.5">ItemDAO</text>
            </g>
        </g>
        <g transform="translate(2,2) scale(1,1)">
            <path fill="none" stroke="#000000" d="M 774.5 80 L 774.5 952" stroke-miterlimit="10" stroke-dasharray="3" />
        </g>
        <g transform="translate(2,2) scale(1,1)">
            <g>
                <path fill="none" stroke="none" />
                <text fill="#000000" stroke="none" font-family="Arial" font-size="11px" font-style="normal" font-weight="normal" text-decoration="none" x="317" y="592">auction = new AuctionDetails(</text>
            </g>
        </g>
        <g transform="translate(2,2) scale(1,1)">
            <g>
                <path fill="none" stroke="none" />
                <text fill="#000000" stroke="none" font-family="Arial" font-size="11px" font-style="normal" font-weight="normal" text-decoration="none" x="317" y="605">  item.getId(),</text>
            </g>
        </g>
        <g transform="translate(2,2) scale(1,1)">
            <g>
                <path fill="none" stroke="none" />
                <text fill="#000000" stroke="none" font-family="Arial" font-size="11px" font-style="normal" font-weight="normal" text-decoration="none" x="317" y="618">  userId,</text>
            </g>
        </g>
        <g transform="translate(2,2) scale(1,1)">
            <g>
                <path fill="none" stroke="none" />
                <text fill="#000000" stroke="none" font-family="Arial" font-size="11px" font-style="normal" font-weight="normal" text-decoration="none" x="317" y="631">  base_price, </text>
            </g>
        </g>
        <g transform="translate(2,2) scale(1,1)">
            <g>
                <path fill="none" stroke="none" />
                <text fill="#000000" stroke="none" font-family="Arial" font-size="11px" font-style="normal" font-weight="normal" text-decoration="none" x="317" y="644">  minimum_rise, </text>
            </g>
        </g>
        <g transform="translate(2,2) scale(1,1)">
            <g>
                <path fill="none" stroke="none" />
                <text fill="#000000" stroke="none" font-family="Arial" font-size="11px" font-style="normal" font-weight="normal" text-decoration="none" x="317" y="657">  expire_datetime</text>
            </g>
        </g>
        <g transform="translate(2,2) scale(1,1)">
            <g>
                <path fill="none" stroke="none" />
                <text fill="#000000" stroke="none" font-family="Arial" font-size="11px" font-style="normal" font-weight="normal" text-decoration="none" x="317" y="670">)</text>
            </g>
        </g>
        <g transform="translate(2,2) scale(1,1)">
            <rect fill="#C0C0C0" stroke="none" x="847" y="47" width="102.78271484375" height="39" opacity="0.2" />
        </g>
        <g transform="translate(2,2) scale(1,1)">
            <rect fill="#d8ffeb" stroke="none" x="840" y="40" width="102.78271484375" height="39" />
        </g>
        <g transform="translate(2,2) scale(1,1)">
            <path fill="none" stroke="#005128" d="M 840 40 L 942.78271484375 40 L 942.78271484375 79 L 840 79 L 840 40 Z Z" stroke-miterlimit="10" />
        </g>
        <g transform="translate(2,2) scale(1,1)">
            <g>
                <path fill="none" stroke="none" />
                <text fill="#005128" stroke="none" font-family="Arial" font-size="13px" font-style="normal" font-weight="bold" text-decoration="none" x="855.62548828125" y="59.5">AuctionDAO</text>
            </g>
        </g>
        <g transform="translate(2,2) scale(1,1)">
            <path fill="none" stroke="#000000" d="M 892.5 80 L 892.5 952" stroke-miterlimit="10" stroke-dasharray="3" />
        </g>
        <g transform="translate(2,2) scale(1,1)">
            <path fill="#000000" stroke="none" d="M 900 888.5 C 900 884.6340064 903.1340064 881.5 907 881.5 C 910.8659936 881.5 914 884.6340064 914 888.5 C 914 892.3659936 910.8659936 895.5 907 895.5 C 903.1340064 895.5 900 892.3659936 900 888.5 Z" />
        </g>
        <g transform="translate(2,2) scale(1,1)">
            <path fill="#ffffd8" stroke="none" d="M 936 840 L 994 840 L 1004 850 L 1004 936 L 936 936 L 936 840" />
        </g>
        <g transform="translate(2,2) scale(1,1)">
            <path fill="none" stroke="#545400" d="M 936 840 L 994 840 L 1004 850 L 1004 936 L 936 936 L 936 840 L 936 840" stroke-miterlimit="10" />
        </g>
        <g transform="translate(2,2) scale(1,1)">
            <path fill="none" stroke="#545400" d="M 994 840 L 994 850 L 1004 850 L 994 840" stroke-miterlimit="10" />
        </g>
        <g transform="translate(2,2) scale(1,1)">
            <g>
                <path fill="none" stroke="none" />
                <text fill="#000000" stroke="none" font-family="Arial" font-size="13px" font-style="normal" font-weight="normal" text-decoration="none" x="941" y="858">TO</text>
            </g>
        </g>
        <g transform="translate(2,2) scale(1,1)">
            <g>
                <path fill="none" stroke="none" />
                <text fill="#000000" stroke="none" font-family="Arial" font-size="13px" font-style="normal" font-weight="normal" text-decoration="none" x="941" y="873">/sell</text>
            </g>
        </g>
        <g transform="translate(2,2) scale(1,1)">
            <g>
                <path fill="none" stroke="none" />
                <text fill="#000000" stroke="none" font-family="Arial" font-size="13px" font-style="normal" font-weight="normal" text-decoration="none" x="941" y="888"></text>
            </g>
        </g>
        <g transform="translate(2,2) scale(1,1)">
            <g>
                <path fill="none" stroke="none" />
                <text fill="#000000" stroke="none" font-family="Arial" font-size="13px" font-style="normal" font-weight="normal" text-decoration="none" x="941" y="903">SEE:</text>
            </g>
        </g>
        <g transform="translate(2,2) scale(1,1)">
            <g>
                <path fill="none" stroke="none" />
                <text fill="#000000" stroke="none" font-family="Arial" font-size="13px" font-style="normal" font-weight="normal" text-decoration="none" x="941" y="918">Show Sell</text>
            </g>
        </g>
        <g transform="translate(2,2) scale(1,1)">
            <path fill="none" stroke="#000000" d="M 174 142 L 253 142" stroke-miterlimit="10" />
        </g>
        <g transform="translate(2,2) scale(1,1)">
            <path fill="#000000" stroke="none" d="M 242.83732514237585 146.209517756016 L 253 142 L 242.83732514237585 137.790482243984" />
        </g>
        <g transform="translate(2,2) scale(1,1)">
            <path fill="none" stroke="#000000" d="M 242.83732514237585 146.209517756016 L 253 142 L 242.83732514237585 137.790482243984 L 242.83732514237585 146.209517756016" stroke-miterlimit="10" />
        </g>
        <g transform="translate(2,2) scale(1,1)">
            <g>
                <path fill="none" stroke="none" />
                <text fill="#000000" stroke="none" font-family="Arial" font-size="13px" font-style="normal" font-weight="normal" text-decoration="none" x="188.924072265625" y="138.5">doPost()</text>
            </g>
        </g>
        <g transform="translate(2,2) scale(1,1)">
            <rect fill="#ffd8d8" stroke="none" x="253" y="142" width="13" height="218" />
        </g>
        <g transform="translate(2,2) scale(1,1)">
            <path fill="none" stroke="#700000" d="M 253 142 L 266 142 L 266 360 L 253 360 L 253 142 Z Z" stroke-miterlimit="10" />
        </g>
        <g transform="translate(2,2) scale(1,1)">
            <path fill="none" stroke="#000000" d="M 266 224 L 519 224" stroke-miterlimit="10" />
        </g>
        <g transform="translate(2,2) scale(1,1)">
            <path fill="#000000" stroke="none" d="M 508.83732514237585 228.209517756016 L 519 224 L 508.83732514237585 219.790482243984" />
        </g>
        <g transform="translate(2,2) scale(1,1)">
            <path fill="none" stroke="#000000" d="M 508.83732514237585 228.209517756016 L 519 224 L 508.83732514237585 219.790482243984 L 508.83732514237585 228.209517756016" stroke-miterlimit="10" />
        </g>
        <g transform="translate(2,2) scale(1,1)">
            <rect fill="#d8ffeb" stroke="none" x="519" y="224" width="13" height="28" />
        </g>
        <g transform="translate(2,2) scale(1,1)">
            <path fill="none" stroke="#005128" d="M 519 224 L 532 224 L 532 252 L 519 252 L 519 224 Z Z" stroke-miterlimit="10" />
        </g>
        <g transform="translate(2,2) scale(1,1)">
            <path fill="none" stroke="#000000" d="M 266 262 L 519 262" stroke-miterlimit="10" />
        </g>
        <g transform="translate(2,2) scale(1,1)">
            <path fill="#000000" stroke="none" d="M 508.83732514237585 266.209517756016 L 519 262 L 508.83732514237585 257.790482243984" />
        </g>
        <g transform="translate(2,2) scale(1,1)">
            <path fill="none" stroke="#000000" d="M 508.83732514237585 266.209517756016 L 519 262 L 508.83732514237585 257.790482243984 L 508.83732514237585 266.209517756016" stroke-miterlimit="10" />
        </g>
        <g transform="translate(2,2) scale(1,1)">
            <g>
                <path fill="none" stroke="none" />
                <text fill="#000000" stroke="none" font-family="Arial" font-size="13px" font-style="normal" font-weight="normal" text-decoration="none" x="329.5" y="258.5">validator.isValifForm()</text>
            </g>
        </g>
        <g transform="translate(2,2) scale(1,1)">
            <rect fill="#d8ffeb" stroke="none" x="519" y="262" width="13" height="28" />
        </g>
        <g transform="translate(2,2) scale(1,1)">
            <path fill="none" stroke="#005128" d="M 519 262 L 532 262 L 532 290 L 519 290 L 519 262 Z Z" stroke-miterlimit="10" />
        </g>
        <g transform="translate(2,2) scale(1,1)">
            <path fill="none" stroke="#000000" d="M 266 344 L 296 344 L 296 364 L 266 364" stroke-miterlimit="10" />
        </g>
        <g transform="translate(2,2) scale(1,1)">
            <path fill="#000000" stroke="none" d="M 276.16267485762415 359.790482243984 L 266 364 L 276.16267485762415 368.209517756016" />
        </g>
        <g transform="translate(2,2) scale(1,1)">
            <path fill="none" stroke="#000000" d="M 276.16267485762415 359.790482243984 L 266 364 L 276.16267485762415 368.209517756016 L 276.16267485762415 359.790482243984" stroke-miterlimit="10" />
        </g>
        <g transform="translate(2,2) scale(1,1)">
            <rect fill="#ffd8d8" stroke="none" x="253" y="364" width="13" height="172" />
        </g>
        <g transform="translate(2,2) scale(1,1)">
            <path fill="none" stroke="#700000" d="M 253 364 L 266 364 L 266 536 L 253 536 L 253 364 Z Z" stroke-miterlimit="10" />
        </g>
        <g transform="translate(2,2) scale(1,1)">
            <path fill="none" stroke="#000000" d="M 266 432 L 767 432" stroke-miterlimit="10" />
        </g>
        <g transform="translate(2,2) scale(1,1)">
            <path fill="#000000" stroke="none" d="M 756.8373251423759 436.209517756016 L 767 432 L 756.8373251423758 427.790482243984" />
        </g>
        <g transform="translate(2,2) scale(1,1)">
            <path fill="none" stroke="#000000" d="M 756.8373251423759 436.209517756016 L 767 432 L 756.8373251423758 427.790482243984 L 756.8373251423759 436.209517756016" stroke-miterlimit="10" />
        </g>
        <g transform="translate(2,2) scale(1,1)">
            <g>
                <path fill="none" stroke="none" />
                <text fill="#000000" stroke="none" font-family="Arial" font-size="13px" font-style="normal" font-weight="normal" text-decoration="none" x="349.5" y="427.5">insertItem(item)</text>
            </g>
        </g>
        <g transform="translate(2,2) scale(1,1)">
            <rect fill="#d8ffeb" stroke="none" x="767" y="432" width="13" height="28" />
        </g>
        <g transform="translate(2,2) scale(1,1)">
            <path fill="none" stroke="#005128" d="M 767 432 L 780 432 L 780 460 L 767 460 L 767 432 Z Z" stroke-miterlimit="10" />
        </g>
        <g transform="translate(2,2) scale(1,1)">
            <path fill="none" stroke="#000000" d="M 266 504 L 661 504" stroke-miterlimit="10" />
        </g>
        <g transform="translate(2,2) scale(1,1)">
            <path fill="#000000" stroke="none" d="M 650.8373251423759 508.209517756016 L 661 504 L 650.8373251423758 499.790482243984" />
        </g>
        <g transform="translate(2,2) scale(1,1)">
            <path fill="none" stroke="#000000" d="M 650.8373251423759 508.209517756016 L 661 504 L 650.8373251423758 499.790482243984 L 650.8373251423759 508.209517756016" stroke-miterlimit="10" />
        </g>
        <g transform="translate(2,2) scale(1,1)">
            <g>
                <path fill="none" stroke="none" />
                <text fill="#000000" stroke="none" font-family="Arial" font-size="13px" font-style="normal" font-weight="normal" text-decoration="none" x="342.5" y="499.5">getAttribute("user_id")</text>
            </g>
        </g>
        <g transform="translate(2,2) scale(1,1)">
            <rect fill="#e2e2e2" stroke="none" x="661" y="504" width="13" height="48" />
        </g>
        <g transform="translate(2,2) scale(1,1)">
            <path fill="none" stroke="#383838" d="M 661 504 L 674 504 L 674 552 L 661 552 L 661 504 Z Z" stroke-miterlimit="10" />
        </g>
        <g transform="translate(2,2) scale(1,1)">
            <path fill="none" stroke="#000000" d="M 661 544 L 266 544" stroke-miterlimit="10" />
        </g>
        <g transform="translate(2,2) scale(1,1)">
            <path fill="#000000" stroke="none" d="M 276.16267485762415 539.790482243984 L 266 544 L 276.16267485762415 548.209517756016" />
        </g>
        <g transform="translate(2,2) scale(1,1)">
            <path fill="none" stroke="#000000" d="M 276.16267485762415 539.790482243984 L 266 544 L 276.16267485762415 548.209517756016 L 276.16267485762415 539.790482243984" stroke-miterlimit="10" />
        </g>
        <g transform="translate(2,2) scale(1,1)">
            <g>
                <path fill="none" stroke="none" />
                <text fill="#000000" stroke="none" font-family="Arial" font-size="13px" font-style="normal" font-weight="normal" text-decoration="none" x="371.424072265625" y="539.5">userId</text>
            </g>
        </g>
        <g transform="translate(2,2) scale(1,1)">
            <rect fill="#ffd8d8" stroke="none" x="253" y="544" width="13" height="88" />
        </g>
        <g transform="translate(2,2) scale(1,1)">
            <path fill="none" stroke="#700000" d="M 253 544 L 266 544 L 266 632 L 253 632 L 253 544 Z Z" stroke-miterlimit="10" />
        </g>
        <g transform="translate(2,2) scale(1,1)">
            <path fill="none" stroke="#000000" d="M 266 616 L 296 616 L 296 636 L 266 636" stroke-miterlimit="10" />
        </g>
        <g transform="translate(2,2) scale(1,1)">
            <path fill="#000000" stroke="none" d="M 276.16267485762415 631.790482243984 L 266 636 L 276.16267485762415 640.209517756016" />
        </g>
        <g transform="translate(2,2) scale(1,1)">
            <path fill="none" stroke="#000000" d="M 276.16267485762415 631.790482243984 L 266 636 L 276.16267485762415 640.209517756016 L 276.16267485762415 631.790482243984" stroke-miterlimit="10" />
        </g>
        <g transform="translate(2,2) scale(1,1)">
            <rect fill="#ffd8d8" stroke="none" x="253" y="636" width="13" height="260" />
        </g>
        <g transform="translate(2,2) scale(1,1)">
            <path fill="none" stroke="#700000" d="M 253 636 L 266 636 L 266 896 L 253 896 L 253 636 Z Z" stroke-miterlimit="10" />
        </g>
        <g transform="translate(2,2) scale(1,1)">
            <path fill="none" stroke="#000000" d="M 266 712 L 885 712" stroke-miterlimit="10" />
        </g>
        <g transform="translate(2,2) scale(1,1)">
            <path fill="#000000" stroke="none" d="M 874.8373251423759 716.209517756016 L 885 712 L 874.8373251423758 707.790482243984" />
        </g>
        <g transform="translate(2,2) scale(1,1)">
            <path fill="none" stroke="#000000" d="M 874.8373251423759 716.209517756016 L 885 712 L 874.8373251423758 707.790482243984 L 874.8373251423759 716.209517756016" stroke-miterlimit="10" />
        </g>
        <g transform="translate(2,2) scale(1,1)">
            <g>
                <path fill="none" stroke="none" />
                <text fill="#000000" stroke="none" font-family="Arial" font-size="13px" font-style="normal" font-weight="normal" text-decoration="none" x="342.5" y="706.5">insertAuction(auction)</text>
            </g>
        </g>
        <g transform="translate(2,2) scale(1,1)">
            <rect fill="#d8ffeb" stroke="none" x="885" y="712" width="13" height="28" />
        </g>
        <g transform="translate(2,2) scale(1,1)">
            <path fill="none" stroke="#005128" d="M 885 712 L 898 712 L 898 740 L 885 740 L 885 712 Z Z" stroke-miterlimit="10" />
        </g>
        <g transform="translate(2,2) scale(1,1)">
            <path fill="none" stroke="#000000" d="M 266 760 L 519 760" stroke-miterlimit="10" />
        </g>
        <g transform="translate(2,2) scale(1,1)">
            <path fill="#000000" stroke="none" d="M 508.83732514237585 764.209517756016 L 519 760 L 508.83732514237585 755.790482243984" />
        </g>
        <g transform="translate(2,2) scale(1,1)">
            <path fill="none" stroke="#000000" d="M 508.83732514237585 764.209517756016 L 519 760 L 508.83732514237585 755.790482243984 L 508.83732514237585 764.209517756016" stroke-miterlimit="10" />
        </g>
        <g transform="translate(2,2) scale(1,1)">
            <g>
                <path fill="none" stroke="none" />
                <text fill="#000000" stroke="none" font-family="Arial" font-size="13px" font-style="normal" font-weight="normal" text-decoration="none" x="278.5" y="756.5">setSuccessMessage(successMessage)</text>
            </g>
        </g>
        <g transform="translate(2,2) scale(1,1)">
            <rect fill="#d8ffeb" stroke="none" x="519" y="760" width="13" height="28" />
        </g>
        <g transform="translate(2,2) scale(1,1)">
            <path fill="none" stroke="#005128" d="M 519 760 L 532 760 L 532 788 L 519 788 L 519 760 Z Z" stroke-miterlimit="10" />
        </g>
        <g transform="translate(2,2) scale(1,1)">
            <path fill="none" stroke="#000000" d="M 266 835 L 661 835" stroke-miterlimit="10" />
        </g>
        <g transform="translate(2,2) scale(1,1)">
            <path fill="#000000" stroke="none" d="M 650.8373251423759 839.209517756016 L 661 835 L 650.8373251423758 830.790482243984" />
        </g>
        <g transform="translate(2,2) scale(1,1)">
            <path fill="none" stroke="#000000" d="M 650.8373251423759 839.209517756016 L 661 835 L 650.8373251423758 830.790482243984 L 650.8373251423759 839.209517756016" stroke-miterlimit="10" />
        </g>
        <g transform="translate(2,2) scale(1,1)">
            <g>
                <path fill="none" stroke="none" />
                <text fill="#000000" stroke="none" font-family="Arial" font-size="13px" font-style="normal" font-weight="normal" text-decoration="none" x="335.5" y="829.5">setAttribute(validator)</text>
            </g>
        </g>
        <g transform="translate(2,2) scale(1,1)">
            <rect fill="#e2e2e2" stroke="none" x="661" y="835" width="13" height="28" />
        </g>
        <g transform="translate(2,2) scale(1,1)">
            <path fill="none" stroke="#383838" d="M 661 835 L 674 835 L 674 863 L 661 863 L 661 835 Z Z" stroke-miterlimit="10" />
        </g>
        <g transform="translate(2,2) scale(1,1)">
            <path fill="none" stroke="#000000" d="M 266 889 L 900 889" stroke-miterlimit="10" />
        </g>
        <g transform="translate(2,2) scale(1,1)">
            <path fill="#000000" stroke="none" d="M 889.8373251423759 893.209517756016 L 900 889 L 889.8373251423758 884.790482243984" />
        </g>
        <g transform="translate(2,2) scale(1,1)">
            <path fill="none" stroke="#000000" d="M 889.8373251423759 893.209517756016 L 900 889 L 889.8373251423758 884.790482243984 L 889.8373251423759 893.209517756016" stroke-miterlimit="10" />
        </g>
        <g transform="translate(2,2) scale(1,1)">
            <g>
                <path fill="none" stroke="none" />
                <text fill="#000000" stroke="none" font-family="Arial" font-size="13px" font-style="normal" font-weight="normal" text-decoration="none" x="359.8154296875" y="883.5">redirect</text>
            </g>
        </g>
        <g transform="translate(2,2) scale(1,1)">
            <path fill="none" stroke="#000000" d="M 104 312 L 920 312 L 920 800 L 104 800 L 104 312" stroke-miterlimit="10" />
        </g>
        <g transform="translate(2,2) scale(1,1)">
            <path fill="#ffffd8" stroke="none" d="M 104 312 L 104 334 L 208.61328125 334 L 219.61328125 323 L 219.61328125 312 L 104 312" />
        </g>
        <g transform="translate(2,2) scale(1,1)">
            <path fill="none" stroke="#000000" d="M 104 312 L 104 334 L 208.61328125 334 L 219.61328125 323 L 219.61328125 312 L 104 312 L 104 312" stroke-miterlimit="10" />
        </g>
        <g transform="translate(2,2) scale(1,1)">
            <g>
                <path fill="none" stroke="none" />
                <text fill="#000000" stroke="none" font-family="Arial" font-size="13px" font-style="normal" font-weight="normal" text-decoration="none" x="128.72998046875" y="329.5">Form is Valid</text>
            </g>
        </g>
        <g transform="translate(2,2) scale(1,1)">
            <g>
                <path fill="none" stroke="none" />
                <text fill="#000000" stroke="none" font-family="Arial" font-size="13px" font-style="normal" font-weight="bold" text-decoration="none" x="109" y="329.5">alt</text>
            </g>
        </g>
        <g transform="translate(2,2) scale(1,1)">
            <g>
                <path fill="none" stroke="none" />
                <text fill="#000000" stroke="none" font-family="Arial" font-size="13px" font-style="normal" font-weight="normal" text-decoration="none" x="123.5" y="362.5">[YES]</text>
            </g>
        </g>
    </g>
</svg>