<svg version="1.1" xmlns="http://www.w3.org/2000/svg" xmlns:xlink="http://www.w3.org/1999/xlink" width="868" height="484">
    <g>
        <g transform="translate(2,2) scale(1,1)">
            <path fill="none" stroke="#000000" d="M 8 8 L 856 8 L 856 472 L 8 472 L 8 8" stroke-miterlimit="10" />
        </g>
        <g transform="translate(2,2) scale(1,1)">
            <path fill="#ffffd8" stroke="none" d="M 8 8 L 8 30 L 117.93896484375 30 L 128.93896484375 19 L 128.93896484375 8 L 8 8" />
        </g>
        <g transform="translate(2,2) scale(1,1)">
            <path fill="none" stroke="#000000" d="M 8 8 L 8 30 L 117.93896484375 30 L 128.93896484375 19 L 128.93896484375 8 L 8 8 L 8 8" stroke-miterlimit="10" />
        </g>
        <g transform="translate(2,2) scale(1,1)">
            <g>
                <path fill="none" stroke="none" />
                <text fill="#000000" stroke="none" font-family="Arial" font-size="13px" font-style="normal" font-weight="normal" text-decoration="none" x="32.72998046875" y="25.5">Close Auction</text>
            </g>
        </g>
        <g transform="translate(2,2) scale(1,1)">
            <g>
                <path fill="none" stroke="none" />
                <text fill="#000000" stroke="none" font-family="Arial" font-size="13px" font-style="normal" font-weight="bold" text-decoration="none" x="13" y="25.5">sd</text>
            </g>
        </g>
        <g transform="translate(2,2) scale(1,1)">
            <rect fill="#C0C0C0" stroke="none" x="183" y="47" width="146.1435546875" height="39" opacity="0.2" />
        </g>
        <g transform="translate(2,2) scale(1,1)">
            <rect fill="#ffd8d8" stroke="none" x="176" y="40" width="146.1435546875" height="39" />
        </g>
        <g transform="translate(2,2) scale(1,1)">
            <path fill="none" stroke="#700000" d="M 176 40 L 322.1435546875 40 L 322.1435546875 79 L 176 79 L 176 40 Z Z" stroke-miterlimit="10" />
        </g>
        <g transform="translate(2,2) scale(1,1)">
            <g>
                <path fill="none" stroke="none" />
                <text fill="#700000" stroke="none" font-family="Arial" font-size="13px" font-style="normal" font-weight="bold" text-decoration="none" x="190.543212890625" y="59.5">CloseAuctionServlet</text>
            </g>
        </g>
        <g transform="translate(2,2) scale(1,1)">
            <path fill="none" stroke="#000000" d="M 250.5 80 L 250.5 472" stroke-miterlimit="10" stroke-dasharray="3" />
        </g>
        <g transform="translate(2,2) scale(1,1)">
            <path fill="#000000" stroke="none" d="M 112 159.5 C 112 155.6340064 115.1340064 152.5 119 152.5 C 122.8659936 152.5 126 155.6340064 126 159.5 C 126 163.3659936 122.8659936 166.5 119 166.5 C 115.1340064 166.5 112 163.3659936 112 159.5 Z" />
        </g>
        <g transform="translate(2,2) scale(1,1)">
            <path fill="#ffffd8" stroke="none" d="M 24 128 L 97.7490234375 128 L 107.7490234375 138 L 107.7490234375 226 L 24 226 L 24 128" />
        </g>
        <g transform="translate(2,2) scale(1,1)">
            <path fill="none" stroke="#545400" d="M 24 128 L 97.7490234375 128 L 107.7490234375 138 L 107.7490234375 226 L 24 226 L 24 128 L 24 128" stroke-miterlimit="10" />
        </g>
        <g transform="translate(2,2) scale(1,1)">
            <path fill="none" stroke="#545400" d="M 97.7490234375 128 L 97.7490234375 138 L 107.7490234375 138 L 97.7490234375 128" stroke-miterlimit="10" />
        </g>
        <g transform="translate(2,2) scale(1,1)">
            <g>
                <path fill="none" stroke="none" />
                <text fill="#000000" stroke="none" font-family="Arial" font-size="13px" font-style="normal" font-weight="normal" text-decoration="none" x="29" y="146">GET:</text>
            </g>
        </g>
        <g transform="translate(2,2) scale(1,1)">
            <g>
                <path fill="none" stroke="none" />
                <text fill="#000000" stroke="none" font-family="Arial" font-size="13px" font-style="normal" font-weight="normal" text-decoration="none" x="29" y="161">/close</text>
            </g>
        </g>
        <g transform="translate(2,2) scale(1,1)">
            <g>
                <path fill="none" stroke="none" />
                <text fill="#000000" stroke="none" font-family="Arial" font-size="13px" font-style="normal" font-weight="normal" text-decoration="none" x="29" y="176">auction_id</text>
            </g>
        </g>
        <g transform="translate(2,2) scale(1,1)">
            <g>
                <path fill="none" stroke="none" />
                <text fill="#000000" stroke="none" font-family="Arial" font-size="13px" font-style="normal" font-weight="normal" text-decoration="none" x="29" y="191"></text>
            </g>
        </g>
        <g transform="translate(2,2) scale(1,1)">
            <g>
                <path fill="none" stroke="none" />
                <text fill="#000000" stroke="none" font-family="Arial" font-size="13px" font-style="normal" font-weight="normal" text-decoration="none" x="29" y="206">FROM:</text>
            </g>
        </g>
        <g transform="translate(2,2) scale(1,1)">
            <g>
                <path fill="none" stroke="none" />
                <text fill="#000000" stroke="none" font-family="Arial" font-size="13px" font-style="normal" font-weight="normal" text-decoration="none" x="29" y="221">details.html</text>
            </g>
        </g>
        <g transform="translate(2,2) scale(1,1)">
            <rect fill="#C0C0C0" stroke="none" x="415" y="47" width="96.27001953125" height="39" opacity="0.2" />
        </g>
        <g transform="translate(2,2) scale(1,1)">
            <rect fill="#d8ffeb" stroke="none" x="408" y="40" width="96.27001953125" height="39" />
        </g>
        <g transform="translate(2,2) scale(1,1)">
            <path fill="none" stroke="#005128" d="M 408 40 L 504.27001953125 40 L 504.27001953125 79 L 408 79 L 408 40 Z Z" stroke-miterlimit="10" />
        </g>
        <g transform="translate(2,2) scale(1,1)">
            <g>
                <path fill="none" stroke="none" />
                <text fill="#005128" stroke="none" font-family="Arial" font-size="13px" font-style="normal" font-weight="bold" text-decoration="none" x="420.369140625" y="59.5">AuctionDAO</text>
            </g>
        </g>
        <g transform="translate(2,2) scale(1,1)">
            <path fill="none" stroke="#000000" d="M 457.5 80 L 457.5 472" stroke-miterlimit="10" stroke-dasharray="3" />
        </g>
        <g transform="translate(2,2) scale(1,1)">
            <rect fill="#C0C0C0" stroke="none" x="543" y="47" width="71.736328125" height="39" opacity="0.2" />
        </g>
        <g transform="translate(2,2) scale(1,1)">
            <rect fill="#e2e2e2" stroke="none" x="536" y="40" width="71.736328125" height="39" />
        </g>
        <g transform="translate(2,2) scale(1,1)">
            <path fill="none" stroke="#383838" d="M 536 40 L 607.736328125 40 L 607.736328125 79 L 536 79 L 536 40 Z Z" stroke-miterlimit="10" />
        </g>
        <g transform="translate(2,2) scale(1,1)">
            <g>
                <path fill="none" stroke="none" />
                <text fill="#383838" stroke="none" font-family="Arial" font-size="13px" font-style="normal" font-weight="bold" text-decoration="none" x="548.74365234375" y="59.5">Session</text>
            </g>
        </g>
        <g transform="translate(2,2) scale(1,1)">
            <path fill="none" stroke="#000000" d="M 572.5 80 L 572.5 472" stroke-miterlimit="10" stroke-dasharray="3" />
        </g>
        <g transform="translate(2,2) scale(1,1)">
            <path fill="#000000" stroke="none" d="M 667 399.5 C 667 395.6340064 670.1340064 392.5 674 392.5 C 677.8659936 392.5 681 395.6340064 681 399.5 C 681 403.3659936 677.8659936 406.5 674 406.5 C 670.1340064 406.5 667 403.3659936 667 399.5 Z" />
        </g>
        <g transform="translate(2,2) scale(1,1)">
            <path fill="#ffffd8" stroke="none" d="M 696 344 L 829 344 L 839 354 L 839 453 L 696 453 L 696 344" />
        </g>
        <g transform="translate(2,2) scale(1,1)">
            <path fill="none" stroke="#545400" d="M 696 344 L 829 344 L 839 354 L 839 453 L 696 453 L 696 344 L 696 344" stroke-miterlimit="10" />
        </g>
        <g transform="translate(2,2) scale(1,1)">
            <path fill="none" stroke="#545400" d="M 829 344 L 829 354 L 839 354 L 829 344" stroke-miterlimit="10" />
        </g>
        <g transform="translate(2,2) scale(1,1)">
            <g>
                <path fill="none" stroke="none" />
                <text fill="#000000" stroke="none" font-family="Arial" font-size="13px" font-style="normal" font-weight="normal" text-decoration="none" x="701" y="362">TO:</text>
            </g>
        </g>
        <g transform="translate(2,2) scale(1,1)">
            <g>
                <path fill="none" stroke="none" />
                <text fill="#000000" stroke="none" font-family="Arial" font-size="13px" font-style="normal" font-weight="normal" text-decoration="none" x="701" y="377">/details</text>
            </g>
        </g>
        <g transform="translate(2,2) scale(1,1)">
            <g>
                <path fill="none" stroke="none" />
                <text fill="#000000" stroke="none" font-family="Arial" font-size="13px" font-style="normal" font-weight="normal" text-decoration="none" x="701" y="392">auction_id</text>
            </g>
        </g>
        <g transform="translate(2,2) scale(1,1)">
            <g>
                <path fill="none" stroke="none" />
                <text fill="#000000" stroke="none" font-family="Arial" font-size="13px" font-style="normal" font-weight="normal" text-decoration="none" x="701" y="407"></text>
            </g>
        </g>
        <g transform="translate(2,2) scale(1,1)">
            <g>
                <path fill="none" stroke="none" />
                <text fill="#000000" stroke="none" font-family="Arial" font-size="13px" font-style="normal" font-weight="normal" text-decoration="none" x="701" y="422">SEE:</text>
            </g>
        </g>
        <g transform="translate(2,2) scale(1,1)">
            <g>
                <path fill="none" stroke="none" />
                <text fill="#000000" stroke="none" font-family="Arial" font-size="13px" font-style="normal" font-weight="normal" text-decoration="none" x="701" y="437">Show Auction Details</text>
            </g>
        </g>
        <g transform="translate(2,2) scale(1,1)">
            <path fill="none" stroke="#000000" d="M 126 160 L 243 160" stroke-miterlimit="10" />
        </g>
        <g transform="translate(2,2) scale(1,1)">
            <path fill="#000000" stroke="none" d="M 232.83732514237585 164.209517756016 L 243 160 L 232.83732514237585 155.790482243984" />
        </g>
        <g transform="translate(2,2) scale(1,1)">
            <path fill="none" stroke="#000000" d="M 232.83732514237585 164.209517756016 L 243 160 L 232.83732514237585 155.790482243984 L 232.83732514237585 164.209517756016" stroke-miterlimit="10" />
        </g>
        <g transform="translate(2,2) scale(1,1)">
            <g>
                <path fill="none" stroke="none" />
                <text fill="#000000" stroke="none" font-family="Arial" font-size="13px" font-style="normal" font-weight="normal" text-decoration="none" x="161.486328125" y="156.5">doGet()</text>
            </g>
        </g>
        <g transform="translate(2,2) scale(1,1)">
            <rect fill="#ffd8d8" stroke="none" x="243" y="160" width="13" height="56" />
        </g>
        <g transform="translate(2,2) scale(1,1)">
            <path fill="none" stroke="#700000" d="M 243 160 L 256 160 L 256 216 L 243 216 L 243 160 Z Z" stroke-miterlimit="10" />
        </g>
        <g transform="translate(2,2) scale(1,1)">
            <path fill="none" stroke="#000000" d="M 256 176 L 450 176" stroke-miterlimit="10" />
        </g>
        <g transform="translate(2,2) scale(1,1)">
            <path fill="#000000" stroke="none" d="M 439.83732514237585 180.209517756016 L 450 176 L 439.83732514237585 171.790482243984" />
        </g>
        <g transform="translate(2,2) scale(1,1)">
            <path fill="none" stroke="#000000" d="M 439.83732514237585 180.209517756016 L 450 176 L 439.83732514237585 171.790482243984 L 439.83732514237585 180.209517756016" stroke-miterlimit="10" />
        </g>
        <g transform="translate(2,2) scale(1,1)">
            <g>
                <path fill="none" stroke="none" />
                <text fill="#000000" stroke="none" font-family="Arial" font-size="13px" font-style="normal" font-weight="normal" text-decoration="none" x="268.5" y="172.5">getAuctionDetails(auction_id)</text>
            </g>
        </g>
        <g transform="translate(2,2) scale(1,1)">
            <rect fill="#d8ffeb" stroke="none" x="450" y="176" width="13" height="56" />
        </g>
        <g transform="translate(2,2) scale(1,1)">
            <path fill="none" stroke="#005128" d="M 450 176 L 463 176 L 463 232 L 450 232 L 450 176 Z Z" stroke-miterlimit="10" />
        </g>
        <g transform="translate(2,2) scale(1,1)">
            <path fill="none" stroke="#000000" d="M 450 222 L 256 222" stroke-miterlimit="10" />
        </g>
        <g transform="translate(2,2) scale(1,1)">
            <path fill="#000000" stroke="none" d="M 266.16267485762415 217.790482243984 L 256 222 L 266.16267485762415 226.209517756016" />
        </g>
        <g transform="translate(2,2) scale(1,1)">
            <path fill="none" stroke="#000000" d="M 266.16267485762415 217.790482243984 L 256 222 L 266.16267485762415 226.209517756016 L 266.16267485762415 217.790482243984" stroke-miterlimit="10" />
        </g>
        <g transform="translate(2,2) scale(1,1)">
            <g>
                <path fill="none" stroke="none" />
                <text fill="#000000" stroke="none" font-family="Arial" font-size="13px" font-style="normal" font-weight="normal" text-decoration="none" x="311.5" y="219.5">auctionDetails</text>
            </g>
        </g>
        <g transform="translate(2,2) scale(1,1)">
            <rect fill="#ffd8d8" stroke="none" x="243" y="222" width="13" height="42" />
        </g>
        <g transform="translate(2,2) scale(1,1)">
            <path fill="none" stroke="#700000" d="M 243 222 L 256 222 L 256 264 L 243 264 L 243 222 Z Z" stroke-miterlimit="10" />
        </g>
        <g transform="translate(2,2) scale(1,1)">
            <path fill="none" stroke="#000000" d="M 256 248 L 286 248 L 286 268 L 256 268" stroke-miterlimit="10" />
        </g>
        <g transform="translate(2,2) scale(1,1)">
            <path fill="#000000" stroke="none" d="M 266.16267485762415 263.790482243984 L 256 268 L 266.16267485762415 272.209517756016" />
        </g>
        <g transform="translate(2,2) scale(1,1)">
            <path fill="none" stroke="#000000" d="M 266.16267485762415 263.790482243984 L 256 268 L 266.16267485762415 272.209517756016 L 266.16267485762415 263.790482243984" stroke-miterlimit="10" />
        </g>
        <g transform="translate(2,2) scale(1,1)">
            <g>
                <path fill="none" stroke="none" />
                <text fill="#000000" stroke="none" font-family="Arial" font-size="13px" font-style="normal" font-weight="normal" text-decoration="none" x="295.5" y="268.5">auctionDetails.close()</text>
            </g>
        </g>
        <g transform="translate(2,2) scale(1,1)">
            <rect fill="#ffd8d8" stroke="none" x="243" y="268" width="13" height="140" />
        </g>
        <g transform="translate(2,2) scale(1,1)">
            <path fill="none" stroke="#700000" d="M 243 268 L 256 268 L 256 408 L 243 408 L 243 268 Z Z" stroke-miterlimit="10" />
        </g>
        <g transform="translate(2,2) scale(1,1)">
            <path fill="none" stroke="#000000" d="M 256 331 L 565 331" stroke-miterlimit="10" />
        </g>
        <g transform="translate(2,2) scale(1,1)">
            <path fill="#000000" stroke="none" d="M 554.8373251423759 335.209517756016 L 565 331 L 554.8373251423758 326.790482243984" />
        </g>
        <g transform="translate(2,2) scale(1,1)">
            <path fill="none" stroke="#000000" d="M 554.8373251423759 335.209517756016 L 565 331 L 554.8373251423758 326.790482243984 L 554.8373251423759 335.209517756016" stroke-miterlimit="10" />
        </g>
        <g transform="translate(2,2) scale(1,1)">
            <g>
                <path fill="none" stroke="none" />
                <text fill="#000000" stroke="none" font-family="Arial" font-size="13px" font-style="normal" font-weight="normal" text-decoration="none" x="281.5" y="326.5">setAttribute(successMessage)</text>
            </g>
        </g>
        <g transform="translate(2,2) scale(1,1)">
            <rect fill="#e2e2e2" stroke="none" x="565" y="331" width="13" height="28" />
        </g>
        <g transform="translate(2,2) scale(1,1)">
            <path fill="none" stroke="#383838" d="M 565 331 L 578 331 L 578 359 L 565 359 L 565 331 Z Z" stroke-miterlimit="10" />
        </g>
        <g transform="translate(2,2) scale(1,1)">
            <path fill="none" stroke="#000000" d="M 256 400 L 667 400" stroke-miterlimit="10" />
        </g>
        <g transform="translate(2,2) scale(1,1)">
            <path fill="#000000" stroke="none" d="M 656.8373251423759 404.209517756016 L 667 400 L 656.8373251423758 395.790482243984" />
        </g>
        <g transform="translate(2,2) scale(1,1)">
            <path fill="none" stroke="#000000" d="M 656.8373251423759 404.209517756016 L 667 400 L 656.8373251423758 395.790482243984 L 656.8373251423759 404.209517756016" stroke-miterlimit="10" />
        </g>
        <g transform="translate(2,2) scale(1,1)">
            <g>
                <path fill="none" stroke="none" />
                <text fill="#000000" stroke="none" font-family="Arial" font-size="13px" font-style="normal" font-weight="normal" text-decoration="none" x="338.8154296875" y="395.5">redirect</text>
            </g>
        </g>
    </g>
</svg>