<svg version="1.1" xmlns="http://www.w3.org/2000/svg" xmlns:xlink="http://www.w3.org/1999/xlink" width="940" height="548">
    <g>
        <g transform="translate(2,2) scale(1,1)">
            <path fill="none" stroke="#000000" d="M 8 8 L 928 8 L 928 536 L 8 536 L 8 8" stroke-miterlimit="10" />
        </g>
        <g transform="translate(2,2) scale(1,1)">
            <path fill="#ffffd8" stroke="none" d="M 8 8 L 8 30 L 109.998046875 30 L 120.998046875 19 L 120.998046875 8 L 8 8" />
        </g>
        <g transform="translate(2,2) scale(1,1)">
            <path fill="none" stroke="#000000" d="M 8 8 L 8 30 L 109.998046875 30 L 120.998046875 19 L 120.998046875 8 L 8 8 L 8 8" stroke-miterlimit="10" />
        </g>
        <g transform="translate(2,2) scale(1,1)">
            <g>
                <path fill="none" stroke="none" />
                <text fill="#000000" stroke="none" font-family="Arial" font-size="13px" font-style="normal" font-weight="normal" text-decoration="none" x="32.72998046875" y="25.5">Check Login</text>
            </g>
        </g>
        <g transform="translate(2,2) scale(1,1)">
            <g>
                <path fill="none" stroke="none" />
                <text fill="#000000" stroke="none" font-family="Arial" font-size="13px" font-style="normal" font-weight="bold" text-decoration="none" x="13" y="25.5">sd</text>
            </g>
        </g>
        <g transform="translate(2,2) scale(1,1)">
            <rect fill="#C0C0C0" stroke="none" x="263" y="47" width="136.75537109375" height="39" opacity="0.2" />
        </g>
        <g transform="translate(2,2) scale(1,1)">
            <rect fill="#ffd8d8" stroke="none" x="256" y="40" width="136.75537109375" height="39" />
        </g>
        <g transform="translate(2,2) scale(1,1)">
            <path fill="none" stroke="#700000" d="M 256 40 L 392.75537109375 40 L 392.75537109375 79 L 256 79 L 256 40 Z Z" stroke-miterlimit="10" />
        </g>
        <g transform="translate(2,2) scale(1,1)">
            <g>
                <path fill="none" stroke="none" />
                <text fill="#700000" stroke="none" font-family="Arial" font-size="13px" font-style="normal" font-weight="bold" text-decoration="none" x="269.819580078125" y="59.5">CheckLoginServlet</text>
            </g>
        </g>
        <g transform="translate(2,2) scale(1,1)">
            <path fill="none" stroke="#000000" d="M 325.5 80 L 325.5 536" stroke-miterlimit="10" stroke-dasharray="3" />
        </g>
        <g transform="translate(2,2) scale(1,1)">
            <path fill="#000000" stroke="none" d="M 128 111.5 C 128 107.6340064 131.1340064 104.5 135 104.5 C 138.8659936 104.5 142 107.6340064 142 111.5 C 142 115.3659936 138.8659936 118.5 135 118.5 C 131.1340064 118.5 128 115.3659936 128 111.5 Z" />
        </g>
        <g transform="translate(2,2) scale(1,1)">
            <path fill="#ffffd8" stroke="none" d="M 24 56 L 101.3671875 56 L 111.3671875 66 L 111.3671875 169 L 24 169 L 24 56" />
        </g>
        <g transform="translate(2,2) scale(1,1)">
            <path fill="none" stroke="#664c00" d="M 24 56 L 101.3671875 56 L 111.3671875 66 L 111.3671875 169 L 24 169 L 24 56 L 24 56" stroke-miterlimit="10" />
        </g>
        <g transform="translate(2,2) scale(1,1)">
            <path fill="none" stroke="#664c00" d="M 101.3671875 56 L 101.3671875 66 L 111.3671875 66 L 101.3671875 56" stroke-miterlimit="10" />
        </g>
        <g transform="translate(2,2) scale(1,1)">
            <g>
                <path fill="none" stroke="none" />
                <text fill="#000000" stroke="none" font-family="Arial" font-size="13px" font-style="normal" font-weight="normal" text-decoration="none" x="29" y="74">POST:</text>
            </g>
        </g>
        <g transform="translate(2,2) scale(1,1)">
            <g>
                <path fill="none" stroke="none" />
                <text fill="#000000" stroke="none" font-family="Arial" font-size="13px" font-style="normal" font-weight="normal" text-decoration="none" x="29" y="89">/check-login</text>
            </g>
        </g>
        <g transform="translate(2,2) scale(1,1)">
            <g>
                <path fill="none" stroke="none" />
                <text fill="#000000" stroke="none" font-family="Arial" font-size="13px" font-style="normal" font-weight="normal" text-decoration="none" x="29" y="104">username</text>
            </g>
        </g>
        <g transform="translate(2,2) scale(1,1)">
            <g>
                <path fill="none" stroke="none" />
                <text fill="#000000" stroke="none" font-family="Arial" font-size="13px" font-style="normal" font-weight="normal" text-decoration="none" x="29" y="119">password</text>
            </g>
        </g>
        <g transform="translate(2,2) scale(1,1)">
            <g>
                <path fill="none" stroke="none" />
                <text fill="#000000" stroke="none" font-family="Arial" font-size="13px" font-style="normal" font-weight="normal" text-decoration="none" x="29" y="134"></text>
            </g>
        </g>
        <g transform="translate(2,2) scale(1,1)">
            <g>
                <path fill="none" stroke="none" />
                <text fill="#000000" stroke="none" font-family="Arial" font-size="13px" font-style="normal" font-weight="normal" text-decoration="none" x="29" y="149">FROM:</text>
            </g>
        </g>
        <g transform="translate(2,2) scale(1,1)">
            <g>
                <path fill="none" stroke="none" />
                <text fill="#000000" stroke="none" font-family="Arial" font-size="13px" font-style="normal" font-weight="normal" text-decoration="none" x="29" y="164">login.html</text>
            </g>
        </g>
        <g transform="translate(2,2) scale(1,1)">
            <rect fill="#C0C0C0" stroke="none" x="535" y="47" width="76.79541015625" height="39" opacity="0.2" />
        </g>
        <g transform="translate(2,2) scale(1,1)">
            <rect fill="#d8ffeb" stroke="none" x="528" y="40" width="76.79541015625" height="39" />
        </g>
        <g transform="translate(2,2) scale(1,1)">
            <path fill="none" stroke="#005128" d="M 528 40 L 604.79541015625 40 L 604.79541015625 79 L 528 79 L 528 40 Z Z" stroke-miterlimit="10" />
        </g>
        <g transform="translate(2,2) scale(1,1)">
            <g>
                <path fill="none" stroke="none" />
                <text fill="#005128" stroke="none" font-family="Arial" font-size="13px" font-style="normal" font-weight="bold" text-decoration="none" x="538.588623046875" y="59.5">UserDAO</text>
            </g>
        </g>
        <g transform="translate(2,2) scale(1,1)">
            <path fill="none" stroke="#000000" d="M 567.5 80 L 567.5 536" stroke-miterlimit="10" stroke-dasharray="3" />
        </g>
        <g transform="translate(2,2) scale(1,1)">
            <rect fill="#C0C0C0" stroke="none" x="639" y="47" width="71.736328125" height="39" opacity="0.2" />
        </g>
        <g transform="translate(2,2) scale(1,1)">
            <rect fill="#e2e2e2" stroke="none" x="632" y="40" width="71.736328125" height="39" />
        </g>
        <g transform="translate(2,2) scale(1,1)">
            <path fill="none" stroke="#383838" d="M 632 40 L 703.736328125 40 L 703.736328125 79 L 632 79 L 632 40 Z Z" stroke-miterlimit="10" />
        </g>
        <g transform="translate(2,2) scale(1,1)">
            <g>
                <path fill="none" stroke="none" />
                <text fill="#383838" stroke="none" font-family="Arial" font-size="13px" font-style="normal" font-weight="bold" text-decoration="none" x="644.74365234375" y="59.5">Session</text>
            </g>
        </g>
        <g transform="translate(2,2) scale(1,1)">
            <path fill="none" stroke="#000000" d="M 668.5 80 L 668.5 536" stroke-miterlimit="10" stroke-dasharray="3" />
        </g>
        <g transform="translate(2,2) scale(1,1)">
            <path fill="#000000" stroke="none" d="M 784 343.5 C 784 339.6340064 787.1340064 336.5 791 336.5 C 794.8659936 336.5 798 339.6340064 798 343.5 C 798 347.3659936 794.8659936 350.5 791 350.5 C 787.1340064 350.5 784 347.3659936 784 343.5 Z" />
        </g>
        <g transform="translate(2,2) scale(1,1)">
            <path fill="#ffffd8" stroke="none" d="M 816 304 L 901 304 L 911 314 L 911 387 L 816 387 L 816 304" />
        </g>
        <g transform="translate(2,2) scale(1,1)">
            <path fill="none" stroke="#664c00" d="M 816 304 L 901 304 L 911 314 L 911 387 L 816 387 L 816 304 L 816 304" stroke-miterlimit="10" />
        </g>
        <g transform="translate(2,2) scale(1,1)">
            <path fill="none" stroke="#664c00" d="M 901 304 L 901 314 L 911 314 L 901 304" stroke-miterlimit="10" />
        </g>
        <g transform="translate(2,2) scale(1,1)">
            <g>
                <path fill="none" stroke="none" />
                <text fill="#000000" stroke="none" font-family="Arial" font-size="13px" font-style="normal" font-weight="normal" text-decoration="none" x="821" y="322">TO:</text>
            </g>
        </g>
        <g transform="translate(2,2) scale(1,1)">
            <g>
                <path fill="none" stroke="none" />
                <text fill="#000000" stroke="none" font-family="Arial" font-size="13px" font-style="normal" font-weight="normal" text-decoration="none" x="821" y="337">/home</text>
            </g>
        </g>
        <g transform="translate(2,2) scale(1,1)">
            <g>
                <path fill="none" stroke="none" />
                <text fill="#000000" stroke="none" font-family="Arial" font-size="13px" font-style="normal" font-weight="normal" text-decoration="none" x="821" y="352"></text>
            </g>
        </g>
        <g transform="translate(2,2) scale(1,1)">
            <g>
                <path fill="none" stroke="none" />
                <text fill="#000000" stroke="none" font-family="Arial" font-size="13px" font-style="normal" font-weight="normal" text-decoration="none" x="821" y="367">SEE:</text>
            </g>
        </g>
        <g transform="translate(2,2) scale(1,1)">
            <g>
                <path fill="none" stroke="none" />
                <text fill="#000000" stroke="none" font-family="Arial" font-size="13px" font-style="normal" font-weight="normal" text-decoration="none" x="821" y="382">Show Home</text>
            </g>
        </g>
        <g transform="translate(2,2) scale(1,1)">
            <path fill="#000000" stroke="none" d="M 784 487.5 C 784 483.6340064 787.1340064 480.5 791 480.5 C 794.8659936 480.5 798 483.6340064 798 487.5 C 798 491.3659936 794.8659936 494.5 791 494.5 C 787.1340064 494.5 784 491.3659936 784 487.5 Z" />
        </g>
        <g transform="translate(2,2) scale(1,1)">
            <path fill="#ffffd8" stroke="none" d="M 816 440 L 901 440 L 911 450 L 911 523 L 816 523 L 816 440" />
        </g>
        <g transform="translate(2,2) scale(1,1)">
            <path fill="none" stroke="#664c00" d="M 816 440 L 901 440 L 911 450 L 911 523 L 816 523 L 816 440 L 816 440" stroke-miterlimit="10" />
        </g>
        <g transform="translate(2,2) scale(1,1)">
            <path fill="none" stroke="#664c00" d="M 901 440 L 901 450 L 911 450 L 901 440" stroke-miterlimit="10" />
        </g>
        <g transform="translate(2,2) scale(1,1)">
            <g>
                <path fill="none" stroke="none" />
                <text fill="#000000" stroke="none" font-family="Arial" font-size="13px" font-style="normal" font-weight="normal" text-decoration="none" x="821" y="458">TO:</text>
            </g>
        </g>
        <g transform="translate(2,2) scale(1,1)">
            <g>
                <path fill="none" stroke="none" />
                <text fill="#000000" stroke="none" font-family="Arial" font-size="13px" font-style="normal" font-weight="normal" text-decoration="none" x="821" y="473">/login</text>
            </g>
        </g>
        <g transform="translate(2,2) scale(1,1)">
            <g>
                <path fill="none" stroke="none" />
                <text fill="#000000" stroke="none" font-family="Arial" font-size="13px" font-style="normal" font-weight="normal" text-decoration="none" x="821" y="488"></text>
            </g>
        </g>
        <g transform="translate(2,2) scale(1,1)">
            <g>
                <path fill="none" stroke="none" />
                <text fill="#000000" stroke="none" font-family="Arial" font-size="13px" font-style="normal" font-weight="normal" text-decoration="none" x="821" y="503">SEE:</text>
            </g>
        </g>
        <g transform="translate(2,2) scale(1,1)">
            <g>
                <path fill="none" stroke="none" />
                <text fill="#000000" stroke="none" font-family="Arial" font-size="13px" font-style="normal" font-weight="normal" text-decoration="none" x="821" y="518">Show Login</text>
            </g>
        </g>
        <g transform="translate(2,2) scale(1,1)">
            <path fill="none" stroke="#000000" d="M 142 112 L 318 112" stroke-miterlimit="10" />
        </g>
        <g transform="translate(2,2) scale(1,1)">
            <path fill="#000000" stroke="none" d="M 307.83732514237585 116.20951775601598 L 318 112 L 307.83732514237585 107.79048224398402" />
        </g>
        <g transform="translate(2,2) scale(1,1)">
            <path fill="none" stroke="#000000" d="M 307.83732514237585 116.20951775601598 L 318 112 L 307.83732514237585 107.79048224398402 L 307.83732514237585 116.20951775601598" stroke-miterlimit="10" />
        </g>
        <g transform="translate(2,2) scale(1,1)">
            <g>
                <path fill="none" stroke="none" />
                <text fill="#000000" stroke="none" font-family="Arial" font-size="13px" font-style="normal" font-weight="normal" text-decoration="none" x="204.956787109375" y="108.5">doPost()</text>
            </g>
        </g>
        <g transform="translate(2,2) scale(1,1)">
            <rect fill="#ffd8d8" stroke="none" x="318" y="112" width="13" height="80" />
        </g>
        <g transform="translate(2,2) scale(1,1)">
            <path fill="none" stroke="#700000" d="M 318 112 L 331 112 L 331 192 L 318 192 L 318 112 Z Z" stroke-miterlimit="10" />
        </g>
        <g transform="translate(2,2) scale(1,1)">
            <path fill="none" stroke="#000000" d="M 331 136 L 560 136" stroke-miterlimit="10" />
        </g>
        <g transform="translate(2,2) scale(1,1)">
            <path fill="#000000" stroke="none" d="M 549.8373251423759 140.209517756016 L 560 136 L 549.8373251423758 131.790482243984" />
        </g>
        <g transform="translate(2,2) scale(1,1)">
            <path fill="none" stroke="#000000" d="M 549.8373251423759 140.209517756016 L 560 136 L 549.8373251423758 131.790482243984 L 549.8373251423759 140.209517756016" stroke-miterlimit="10" />
        </g>
        <g transform="translate(2,2) scale(1,1)">
            <g>
                <path fill="none" stroke="none" />
                <text fill="#000000" stroke="none" font-family="Arial" font-size="13px" font-style="normal" font-weight="normal" text-decoration="none" x="351.966796875" y="132.5">getUserId(username, password)</text>
            </g>
        </g>
        <g transform="translate(2,2) scale(1,1)">
            <rect fill="#d8ffeb" stroke="none" x="560" y="136" width="13" height="72" />
        </g>
        <g transform="translate(2,2) scale(1,1)">
            <path fill="none" stroke="#005128" d="M 560 136 L 573 136 L 573 208 L 560 208 L 560 136 Z Z" stroke-miterlimit="10" />
        </g>
        <g transform="translate(2,2) scale(1,1)">
            <path fill="none" stroke="#000000" d="M 560 200 L 331 200" stroke-miterlimit="10" />
        </g>
        <g transform="translate(2,2) scale(1,1)">
            <path fill="#000000" stroke="none" d="M 341.16267485762415 195.790482243984 L 331 200 L 341.16267485762415 204.209517756016" />
        </g>
        <g transform="translate(2,2) scale(1,1)">
            <path fill="none" stroke="#000000" d="M 341.16267485762415 195.790482243984 L 331 200 L 341.16267485762415 204.209517756016 L 341.16267485762415 195.790482243984" stroke-miterlimit="10" />
        </g>
        <g transform="translate(2,2) scale(1,1)">
            <g>
                <path fill="none" stroke="none" />
                <text fill="#000000" stroke="none" font-family="Arial" font-size="13px" font-style="normal" font-weight="normal" text-decoration="none" x="439.430419921875" y="195.5">id</text>
            </g>
        </g>
        <g transform="translate(2,2) scale(1,1)">
            <rect fill="#ffd8d8" stroke="none" x="318" y="200" width="13" height="312" />
        </g>
        <g transform="translate(2,2) scale(1,1)">
            <path fill="none" stroke="#700000" d="M 318 200 L 331 200 L 331 512 L 318 512 L 318 200 Z Z" stroke-miterlimit="10" />
        </g>
        <g transform="translate(2,2) scale(1,1)">
            <path fill="none" stroke="#000000" d="M 331 264 L 661 264" stroke-miterlimit="10" />
        </g>
        <g transform="translate(2,2) scale(1,1)">
            <path fill="#000000" stroke="none" d="M 650.8373251423759 268.209517756016 L 661 264 L 650.8373251423758 259.790482243984" />
        </g>
        <g transform="translate(2,2) scale(1,1)">
            <path fill="none" stroke="#000000" d="M 650.8373251423759 268.209517756016 L 661 264 L 650.8373251423758 259.790482243984 L 650.8373251423759 268.209517756016" stroke-miterlimit="10" />
        </g>
        <g transform="translate(2,2) scale(1,1)">
            <g>
                <path fill="none" stroke="none" />
                <text fill="#000000" stroke="none" font-family="Arial" font-size="13px" font-style="normal" font-weight="normal" text-decoration="none" x="410.5" y="259.5">setAttribute(id)</text>
            </g>
        </g>
        <g transform="translate(2,2) scale(1,1)">
            <rect fill="#e2e2e2" stroke="none" x="661" y="264" width="13" height="28" />
        </g>
        <g transform="translate(2,2) scale(1,1)">
            <path fill="none" stroke="#383838" d="M 661 264 L 674 264 L 674 292 L 661 292 L 661 264 Z Z" stroke-miterlimit="10" />
        </g>
        <g transform="translate(2,2) scale(1,1)">
            <path fill="none" stroke="#000000" d="M 331 304 L 661 304" stroke-miterlimit="10" />
        </g>
        <g transform="translate(2,2) scale(1,1)">
            <path fill="#000000" stroke="none" d="M 650.8373251423759 308.209517756016 L 661 304 L 650.8373251423758 299.790482243984" />
        </g>
        <g transform="translate(2,2) scale(1,1)">
            <path fill="none" stroke="#000000" d="M 650.8373251423759 308.209517756016 L 661 304 L 650.8373251423758 299.790482243984 L 650.8373251423759 308.209517756016" stroke-miterlimit="10" />
        </g>
        <g transform="translate(2,2) scale(1,1)">
            <g>
                <path fill="none" stroke="none" />
                <text fill="#000000" stroke="none" font-family="Arial" font-size="13px" font-style="normal" font-weight="normal" text-decoration="none" x="378.5" y="298.5">setAttribute(username)</text>
            </g>
        </g>
        <g transform="translate(2,2) scale(1,1)">
            <rect fill="#e2e2e2" stroke="none" x="661" y="304" width="13" height="28" />
        </g>
        <g transform="translate(2,2) scale(1,1)">
            <path fill="none" stroke="#383838" d="M 661 304 L 674 304 L 674 332 L 661 332 L 661 304 Z Z" stroke-miterlimit="10" />
        </g>
        <g transform="translate(2,2) scale(1,1)">
            <path fill="none" stroke="#000000" d="M 331 344 L 784 344" stroke-miterlimit="10" />
        </g>
        <g transform="translate(2,2) scale(1,1)">
            <path fill="#000000" stroke="none" d="M 773.8373251423759 348.209517756016 L 784 344 L 773.8373251423758 339.790482243984" />
        </g>
        <g transform="translate(2,2) scale(1,1)">
            <path fill="none" stroke="#000000" d="M 773.8373251423759 348.209517756016 L 784 344 L 773.8373251423758 339.790482243984 L 773.8373251423759 348.209517756016" stroke-miterlimit="10" />
        </g>
        <g transform="translate(2,2) scale(1,1)">
            <g>
                <path fill="none" stroke="none" />
                <text fill="#000000" stroke="none" font-family="Arial" font-size="13px" font-style="normal" font-weight="normal" text-decoration="none" x="431.8154296875" y="339.5">redirect</text>
            </g>
        </g>
        <g transform="translate(2,2) scale(1,1)">
            <path fill="none" stroke="#000000" d="M 331 415 L 661 415" stroke-miterlimit="10" />
        </g>
        <g transform="translate(2,2) scale(1,1)">
            <path fill="#000000" stroke="none" d="M 650.8373251423759 419.209517756016 L 661 415 L 650.8373251423758 410.790482243984" />
        </g>
        <g transform="translate(2,2) scale(1,1)">
            <path fill="none" stroke="#000000" d="M 650.8373251423759 419.209517756016 L 661 415 L 650.8373251423758 410.790482243984 L 650.8373251423759 419.209517756016" stroke-miterlimit="10" />
        </g>
        <g transform="translate(2,2) scale(1,1)">
            <g>
                <path fill="none" stroke="none" />
                <text fill="#000000" stroke="none" font-family="Arial" font-size="13px" font-style="normal" font-weight="normal" text-decoration="none" x="370.5" y="411.5">setAttribute(errorMessage)</text>
            </g>
        </g>
        <g transform="translate(2,2) scale(1,1)">
            <rect fill="#e2e2e2" stroke="none" x="661" y="415" width="13" height="28" />
        </g>
        <g transform="translate(2,2) scale(1,1)">
            <path fill="none" stroke="#383838" d="M 661 415 L 674 415 L 674 443 L 661 443 L 661 415 Z Z" stroke-miterlimit="10" />
        </g>
        <g transform="translate(2,2) scale(1,1)">
            <path fill="none" stroke="#000000" d="M 331 488 L 784 488" stroke-miterlimit="10" />
        </g>
        <g transform="translate(2,2) scale(1,1)">
            <path fill="#000000" stroke="none" d="M 773.8373251423759 492.209517756016 L 784 488 L 773.8373251423758 483.790482243984" />
        </g>
        <g transform="translate(2,2) scale(1,1)">
            <path fill="none" stroke="#000000" d="M 773.8373251423759 492.209517756016 L 784 488 L 773.8373251423758 483.790482243984 L 773.8373251423759 492.209517756016" stroke-miterlimit="10" />
        </g>
        <g transform="translate(2,2) scale(1,1)">
            <g>
                <path fill="none" stroke="none" />
                <text fill="#000000" stroke="none" font-family="Arial" font-size="13px" font-style="normal" font-weight="normal" text-decoration="none" x="439.8154296875" y="482.5">redirect</text>
            </g>
        </g>
        <g transform="translate(2,2) scale(1,1)">
            <path fill="none" stroke="#000000" d="M 208 160 L 736 160 L 736 520 L 208 520 L 208 160" stroke-miterlimit="10" />
        </g>
        <g transform="translate(2,2) scale(1,1)">
            <path fill="#fff5d8" stroke="none" d="M 208 160 L 208 182 L 296.7314453125 182 L 307.7314453125 171 L 307.7314453125 160 L 208 160" />
        </g>
        <g transform="translate(2,2) scale(1,1)">
            <path fill="none" stroke="#000000" d="M 208 160 L 208 182 L 296.7314453125 182 L 307.7314453125 171 L 307.7314453125 160 L 208 160 L 208 160" stroke-miterlimit="10" />
        </g>
        <g transform="translate(2,2) scale(1,1)">
            <g>
                <path fill="none" stroke="none" />
                <text fill="#000000" stroke="none" font-family="Arial" font-size="13px" font-style="normal" font-weight="normal" text-decoration="none" x="232.72998046875" y="177.5">Valid User</text>
            </g>
        </g>
        <g transform="translate(2,2) scale(1,1)">
            <g>
                <path fill="none" stroke="none" />
                <text fill="#000000" stroke="none" font-family="Arial" font-size="13px" font-style="normal" font-weight="bold" text-decoration="none" x="213" y="177.5">alt</text>
            </g>
        </g>
        <g transform="translate(2,2) scale(1,1)">
            <g>
                <path fill="none" stroke="none" />
                <text fill="#000000" stroke="none" font-family="Arial" font-size="13px" font-style="normal" font-weight="normal" text-decoration="none" x="227.5" y="210.5">[YES]</text>
            </g>
        </g>
        <g transform="translate(2,2) scale(1,1)">
            <path fill="none" stroke="#000000" d="M 208 369 L 736 369" stroke-miterlimit="10" stroke-dasharray="10,3" />
        </g>
        <g transform="translate(2,2) scale(1,1)">
            <g>
                <path fill="none" stroke="none" />
                <text fill="#000000" stroke="none" font-family="Arial" font-size="13px" font-style="normal" font-weight="normal" text-decoration="none" x="227.5" y="396.5">[NO]</text>
            </g>
        </g>
    </g>
</svg>