<svg version="1.1" xmlns="http://www.w3.org/2000/svg" xmlns:xlink="http://www.w3.org/1999/xlink" width="836" height="620">
    <g>
        <g transform="translate(2,10) scale(1,1)">
            <path fill="none" stroke="#000000" d="M 8 0 L 824 0 L 824 600 L 8 600 L 8 0" stroke-miterlimit="10" />
        </g>
        <g transform="translate(2,10) scale(1,1)">
            <path fill="#ffffd8" stroke="none" d="M 8 0 L 8 22 L 152.62255859375 22 L 163.62255859375 11 L 163.62255859375 0 L 8 0" />
        </g>
        <g transform="translate(2,10) scale(1,1)">
            <path fill="none" stroke="#000000" d="M 8 0 L 8 22 L 152.62255859375 22 L 163.62255859375 11 L 163.62255859375 0 L 8 0 L 8 0" stroke-miterlimit="10" />
        </g>
        <g transform="translate(2,10) scale(1,1)">
            <g>
                <path fill="none" stroke="none" />
                <text fill="#000000" stroke="none" font-family="Arial" font-size="13px" font-style="normal" font-weight="normal" text-decoration="none" x="32.72998046875" y="17.5">Authentication Filter</text>
            </g>
        </g>
        <g transform="translate(2,10) scale(1,1)">
            <g>
                <path fill="none" stroke="none" />
                <text fill="#000000" stroke="none" font-family="Arial" font-size="13px" font-style="normal" font-weight="bold" text-decoration="none" x="13" y="17.5">sd</text>
            </g>
        </g>
        <g transform="translate(2,10) scale(1,1)">
            <rect fill="#C0C0C0" stroke="none" x="247" y="47" width="141.7763671875" height="39" opacity="0.2" />
        </g>
        <g transform="translate(2,10) scale(1,1)">
            <rect fill="#ffd8d8" stroke="none" x="240" y="40" width="141.7763671875" height="39" />
        </g>
        <g transform="translate(2,10) scale(1,1)">
            <path fill="none" stroke="#700000" d="M 240 40 L 381.7763671875 40 L 381.7763671875 79 L 240 79 L 240 40 Z Z" stroke-miterlimit="10" />
        </g>
        <g transform="translate(2,10) scale(1,1)">
            <g>
                <path fill="none" stroke="none" />
                <text fill="#700000" stroke="none" font-family="Arial" font-size="13px" font-style="normal" font-weight="bold" text-decoration="none" x="255.247802734375" y="59.5">AuthenticationFilter</text>
            </g>
        </g>
        <g transform="translate(2,10) scale(1,1)">
            <path fill="none" stroke="#000000" d="M 311.5 80 L 311.5 600" stroke-miterlimit="10" stroke-dasharray="3" />
        </g>
        <g transform="translate(2,10) scale(1,1)">
            <path fill="#000000" stroke="none" d="M 136 138.5 C 136 134.6340064 139.1340064 131.5 143 131.5 C 146.8659936 131.5 150 134.6340064 150 138.5 C 150 142.3659936 146.8659936 145.5 143 145.5 C 139.1340064 145.5 136 142.3659936 136 138.5 Z" />
        </g>
        <g transform="translate(2,10) scale(1,1)">
            <path fill="#ffffd8" stroke="none" d="M 24 64 L 109 64 L 119 74 L 119 205 L 24 205 L 24 64" />
        </g>
        <g transform="translate(2,10) scale(1,1)">
            <path fill="none" stroke="#545400" d="M 24 64 L 109 64 L 119 74 L 119 205 L 24 205 L 24 64 L 24 64" stroke-miterlimit="10" />
        </g>
        <g transform="translate(2,10) scale(1,1)">
            <path fill="none" stroke="#545400" d="M 109 64 L 109 74 L 119 74 L 109 64" stroke-miterlimit="10" />
        </g>
        <g transform="translate(2,10) scale(1,1)">
            <g>
                <path fill="none" stroke="none" />
                <text fill="#000000" stroke="none" font-family="Arial" font-size="13px" font-style="normal" font-weight="normal" text-decoration="none" x="29" y="82">GET | POST</text>
            </g>
        </g>
        <g transform="translate(2,10) scale(1,1)">
            <g>
                <path fill="none" stroke="none" />
                <text fill="#000000" stroke="none" font-family="Arial" font-size="13px" font-style="normal" font-weight="normal" text-decoration="none" x="29" y="97"></text>
            </g>
        </g>
        <g transform="translate(2,10) scale(1,1)">
            <g>
                <path fill="none" stroke="none" />
                <text fill="#000000" stroke="none" font-family="Arial" font-size="13px" font-style="normal" font-weight="normal" text-decoration="none" x="29" y="112">FROM:</text>
            </g>
        </g>
        <g transform="translate(2,10) scale(1,1)">
            <g>
                <path fill="none" stroke="none" />
                <text fill="#000000" stroke="none" font-family="Arial" font-size="13px" font-style="normal" font-weight="normal" text-decoration="none" x="29" y="127">home.html</text>
            </g>
        </g>
        <g transform="translate(2,10) scale(1,1)">
            <g>
                <path fill="none" stroke="none" />
                <text fill="#000000" stroke="none" font-family="Arial" font-size="13px" font-style="normal" font-weight="normal" text-decoration="none" x="29" y="142">buy.html</text>
            </g>
        </g>
        <g transform="translate(2,10) scale(1,1)">
            <g>
                <path fill="none" stroke="none" />
                <text fill="#000000" stroke="none" font-family="Arial" font-size="13px" font-style="normal" font-weight="normal" text-decoration="none" x="29" y="157">sell.html</text>
            </g>
        </g>
        <g transform="translate(2,10) scale(1,1)">
            <g>
                <path fill="none" stroke="none" />
                <text fill="#000000" stroke="none" font-family="Arial" font-size="13px" font-style="normal" font-weight="normal" text-decoration="none" x="29" y="172">details.html</text>
            </g>
        </g>
        <g transform="translate(2,10) scale(1,1)">
            <g>
                <path fill="none" stroke="none" />
                <text fill="#000000" stroke="none" font-family="Arial" font-size="13px" font-style="normal" font-weight="normal" text-decoration="none" x="29" y="187">offers.html</text>
            </g>
        </g>
        <g transform="translate(2,10) scale(1,1)">
            <rect fill="#C0C0C0" stroke="none" x="511" y="47" width="71.736328125" height="39" opacity="0.2" />
        </g>
        <g transform="translate(2,10) scale(1,1)">
            <rect fill="#e2e2e2" stroke="none" x="504" y="40" width="71.736328125" height="39" />
        </g>
        <g transform="translate(2,10) scale(1,1)">
            <path fill="none" stroke="#383838" d="M 504 40 L 575.736328125 40 L 575.736328125 79 L 504 79 L 504 40 Z Z" stroke-miterlimit="10" />
        </g>
        <g transform="translate(2,10) scale(1,1)">
            <g>
                <path fill="none" stroke="none" />
                <text fill="#383838" stroke="none" font-family="Arial" font-size="13px" font-style="normal" font-weight="bold" text-decoration="none" x="516.74365234375" y="59.5">Session</text>
            </g>
        </g>
        <g transform="translate(2,10) scale(1,1)">
            <path fill="none" stroke="#000000" d="M 540.5 80 L 540.5 600" stroke-miterlimit="10" stroke-dasharray="3" />
        </g>
        <g transform="translate(2,10) scale(1,1)">
            <path fill="#000000" stroke="none" d="M 608 383.5 C 608 379.6340064 611.1340064 376.5 615 376.5 C 618.8659936 376.5 622 379.6340064 622 383.5 C 622 387.3659936 618.8659936 390.5 615 390.5 C 611.1340064 390.5 608 387.3659936 608 383.5 Z" />
        </g>
        <g transform="translate(2,10) scale(1,1)">
            <path fill="#ffffd8" stroke="none" d="M 640 336 L 781 336 L 791 346 L 791 432 L 640 432 L 640 336" />
        </g>
        <g transform="translate(2,10) scale(1,1)">
            <path fill="none" stroke="#545400" d="M 640 336 L 781 336 L 791 346 L 791 432 L 640 432 L 640 336 L 640 336" stroke-miterlimit="10" />
        </g>
        <g transform="translate(2,10) scale(1,1)">
            <path fill="none" stroke="#545400" d="M 781 336 L 781 346 L 791 346 L 781 336" stroke-miterlimit="10" />
        </g>
        <g transform="translate(2,10) scale(1,1)">
            <g>
                <path fill="none" stroke="none" />
                <text fill="#000000" stroke="none" font-family="Arial" font-size="13px" font-style="normal" font-weight="normal" text-decoration="none" x="645" y="354">TO:</text>
            </g>
        </g>
        <g transform="translate(2,10) scale(1,1)">
            <g>
                <path fill="none" stroke="none" />
                <text fill="#000000" stroke="none" font-family="Arial" font-size="13px" font-style="normal" font-weight="normal" text-decoration="none" x="645" y="369">*intended destination*</text>
            </g>
        </g>
        <g transform="translate(2,10) scale(1,1)">
            <g>
                <path fill="none" stroke="none" />
                <text fill="#000000" stroke="none" font-family="Arial" font-size="13px" font-style="normal" font-weight="normal" text-decoration="none" x="645" y="384"></text>
            </g>
        </g>
        <g transform="translate(2,10) scale(1,1)">
            <g>
                <path fill="none" stroke="none" />
                <text fill="#000000" stroke="none" font-family="Arial" font-size="13px" font-style="normal" font-weight="normal" text-decoration="none" x="645" y="399">SEE:</text>
            </g>
        </g>
        <g transform="translate(2,10) scale(1,1)">
            <g>
                <path fill="none" stroke="none" />
                <text fill="#000000" stroke="none" font-family="Arial" font-size="13px" font-style="normal" font-weight="normal" text-decoration="none" x="645" y="414">Show*destination*</text>
            </g>
        </g>
        <g transform="translate(2,10) scale(1,1)">
            <path fill="#000000" stroke="none" d="M 608 519.5 C 608 515.6340064 611.1340064 512.5 615 512.5 C 618.8659936 512.5 622 515.6340064 622 519.5 C 622 523.3659936 618.8659936 526.5 615 526.5 C 611.1340064 526.5 608 523.3659936 608 519.5 Z" />
        </g>
        <g transform="translate(2,10) scale(1,1)">
            <path fill="#ffffd8" stroke="none" d="M 640 472 L 781 472 L 791 482 L 791 568 L 640 568 L 640 472" />
        </g>
        <g transform="translate(2,10) scale(1,1)">
            <path fill="none" stroke="#545400" d="M 640 472 L 781 472 L 791 482 L 791 568 L 640 568 L 640 472 L 640 472" stroke-miterlimit="10" />
        </g>
        <g transform="translate(2,10) scale(1,1)">
            <path fill="none" stroke="#545400" d="M 781 472 L 781 482 L 791 482 L 781 472" stroke-miterlimit="10" />
        </g>
        <g transform="translate(2,10) scale(1,1)">
            <g>
                <path fill="none" stroke="none" />
                <text fill="#000000" stroke="none" font-family="Arial" font-size="13px" font-style="normal" font-weight="normal" text-decoration="none" x="645" y="490">TO:</text>
            </g>
        </g>
        <g transform="translate(2,10) scale(1,1)">
            <g>
                <path fill="none" stroke="none" />
                <text fill="#000000" stroke="none" font-family="Arial" font-size="13px" font-style="normal" font-weight="normal" text-decoration="none" x="645" y="505">/login</text>
            </g>
        </g>
        <g transform="translate(2,10) scale(1,1)">
            <g>
                <path fill="none" stroke="none" />
                <text fill="#000000" stroke="none" font-family="Arial" font-size="13px" font-style="normal" font-weight="normal" text-decoration="none" x="645" y="520"></text>
            </g>
        </g>
        <g transform="translate(2,10) scale(1,1)">
            <g>
                <path fill="none" stroke="none" />
                <text fill="#000000" stroke="none" font-family="Arial" font-size="13px" font-style="normal" font-weight="normal" text-decoration="none" x="645" y="535">SEE:</text>
            </g>
        </g>
        <g transform="translate(2,10) scale(1,1)">
            <g>
                <path fill="none" stroke="none" />
                <text fill="#000000" stroke="none" font-family="Arial" font-size="13px" font-style="normal" font-weight="normal" text-decoration="none" x="645" y="550">Show Login</text>
            </g>
        </g>
        <g transform="translate(2,10) scale(1,1)">
            <path fill="none" stroke="#000000" d="M 150 139 L 304 139" stroke-miterlimit="10" />
        </g>
        <g transform="translate(2,10) scale(1,1)">
            <path fill="#000000" stroke="none" d="M 293.83732514237585 143.209517756016 L 304 139 L 293.83732514237585 134.790482243984" />
        </g>
        <g transform="translate(2,10) scale(1,1)">
            <path fill="none" stroke="#000000" d="M 293.83732514237585 143.209517756016 L 304 139 L 293.83732514237585 134.790482243984 L 293.83732514237585 143.209517756016" stroke-miterlimit="10" />
        </g>
        <g transform="translate(2,10) scale(1,1)">
            <g>
                <path fill="none" stroke="none" />
                <text fill="#000000" stroke="none" font-family="Arial" font-size="13px" font-style="normal" font-weight="normal" text-decoration="none" x="175.5" y="135.5">doGet() | doPost()</text>
            </g>
        </g>
        <g transform="translate(2,10) scale(1,1)">
            <rect fill="#ffd8d8" stroke="none" x="304" y="139" width="13" height="45" />
        </g>
        <g transform="translate(2,10) scale(1,1)">
            <path fill="none" stroke="#700000" d="M 304 139 L 317 139 L 317 184 L 304 184 L 304 139 Z Z" stroke-miterlimit="10" />
        </g>
        <g transform="translate(2,10) scale(1,1)">
            <path fill="none" stroke="#000000" d="M 317 160 L 533 160" stroke-miterlimit="10" />
        </g>
        <g transform="translate(2,10) scale(1,1)">
            <path fill="#000000" stroke="none" d="M 522.8373251423759 164.209517756016 L 533 160 L 522.8373251423758 155.790482243984" />
        </g>
        <g transform="translate(2,10) scale(1,1)">
            <path fill="none" stroke="#000000" d="M 522.8373251423759 164.209517756016 L 533 160 L 522.8373251423758 155.790482243984 L 522.8373251423759 164.209517756016" stroke-miterlimit="10" />
        </g>
        <g transform="translate(2,10) scale(1,1)">
            <g>
                <path fill="none" stroke="none" />
                <text fill="#000000" stroke="none" font-family="Arial" font-size="13px" font-style="normal" font-weight="normal" text-decoration="none" x="361.08544921875" y="156.5">getAttribute("user_id")</text>
            </g>
        </g>
        <g transform="translate(2,10) scale(1,1)">
            <rect fill="#e2e2e2" stroke="none" x="533" y="160" width="13" height="40" />
        </g>
        <g transform="translate(2,10) scale(1,1)">
            <path fill="none" stroke="#383838" d="M 533 160 L 546 160 L 546 200 L 533 200 L 533 160 Z Z" stroke-miterlimit="10" />
        </g>
        <g transform="translate(2,10) scale(1,1)">
            <path fill="none" stroke="#000000" d="M 533 192 L 317 192" stroke-miterlimit="10" />
        </g>
        <g transform="translate(2,10) scale(1,1)">
            <path fill="#000000" stroke="none" d="M 327.16267485762415 187.790482243984 L 317 192 L 327.16267485762415 196.209517756016" />
        </g>
        <g transform="translate(2,10) scale(1,1)">
            <path fill="none" stroke="#000000" d="M 327.16267485762415 187.790482243984 L 317 192 L 327.16267485762415 196.209517756016 L 327.16267485762415 187.790482243984" stroke-miterlimit="10" />
        </g>
        <g transform="translate(2,10) scale(1,1)">
            <g>
                <path fill="none" stroke="none" />
                <text fill="#000000" stroke="none" font-family="Arial" font-size="13px" font-style="normal" font-weight="normal" text-decoration="none" x="419.430419921875" y="189.5">id</text>
            </g>
        </g>
        <g transform="translate(2,10) scale(1,1)">
            <rect fill="#ffd8d8" stroke="none" x="304" y="192" width="13" height="64" />
        </g>
        <g transform="translate(2,10) scale(1,1)">
            <path fill="none" stroke="#700000" d="M 304 192 L 317 192 L 317 256 L 304 256 L 304 192 Z Z" stroke-miterlimit="10" />
        </g>
        <g transform="translate(2,10) scale(1,1)">
            <path fill="none" stroke="#000000" d="M 317 232 L 533 232" stroke-miterlimit="10" />
        </g>
        <g transform="translate(2,10) scale(1,1)">
            <path fill="#000000" stroke="none" d="M 522.8373251423759 236.209517756016 L 533 232 L 522.8373251423758 227.790482243984" />
        </g>
        <g transform="translate(2,10) scale(1,1)">
            <path fill="none" stroke="#000000" d="M 522.8373251423759 236.209517756016 L 533 232 L 522.8373251423758 227.790482243984 L 522.8373251423759 236.209517756016" stroke-miterlimit="10" />
        </g>
        <g transform="translate(2,10) scale(1,1)">
            <g>
                <path fill="none" stroke="none" />
                <text fill="#000000" stroke="none" font-family="Arial" font-size="13px" font-style="normal" font-weight="normal" text-decoration="none" x="353.5" y="228.5">getAttribute("username")</text>
            </g>
        </g>
        <g transform="translate(2,10) scale(1,1)">
            <rect fill="#e2e2e2" stroke="none" x="533" y="232" width="13" height="40" />
        </g>
        <g transform="translate(2,10) scale(1,1)">
            <path fill="none" stroke="#383838" d="M 533 232 L 546 232 L 546 272 L 533 272 L 533 232 Z Z" stroke-miterlimit="10" />
        </g>
        <g transform="translate(2,10) scale(1,1)">
            <path fill="none" stroke="#000000" d="M 533 264 L 317 264" stroke-miterlimit="10" />
        </g>
        <g transform="translate(2,10) scale(1,1)">
            <path fill="#000000" stroke="none" d="M 327.16267485762415 259.790482243984 L 317 264 L 327.16267485762415 268.209517756016" />
        </g>
        <g transform="translate(2,10) scale(1,1)">
            <path fill="none" stroke="#000000" d="M 327.16267485762415 259.790482243984 L 317 264 L 327.16267485762415 268.209517756016 L 327.16267485762415 259.790482243984" stroke-miterlimit="10" />
        </g>
        <g transform="translate(2,10) scale(1,1)">
            <g>
                <path fill="none" stroke="none" />
                <text fill="#000000" stroke="none" font-family="Arial" font-size="13px" font-style="normal" font-weight="normal" text-decoration="none" x="400.58544921875" y="259.5">username</text>
            </g>
        </g>
        <g transform="translate(2,10) scale(1,1)">
            <rect fill="#ffd8d8" stroke="none" x="304" y="264" width="13" height="48" />
        </g>
        <g transform="translate(2,10) scale(1,1)">
            <path fill="none" stroke="#700000" d="M 304 264 L 317 264 L 317 312 L 304 312 L 304 264 Z Z" stroke-miterlimit="10" />
        </g>
        <g transform="translate(2,10) scale(1,1)">
            <path fill="none" stroke="#000000" d="M 317 296 L 347 296 L 347 316 L 317 316" stroke-miterlimit="10" />
        </g>
        <g transform="translate(2,10) scale(1,1)">
            <path fill="#000000" stroke="none" d="M 327.16267485762415 311.790482243984 L 317 316 L 327.16267485762415 320.209517756016" />
        </g>
        <g transform="translate(2,10) scale(1,1)">
            <path fill="none" stroke="#000000" d="M 327.16267485762415 311.790482243984 L 317 316 L 327.16267485762415 320.209517756016 L 327.16267485762415 311.790482243984" stroke-miterlimit="10" />
        </g>
        <g transform="translate(2,10) scale(1,1)">
            <g>
                <path fill="none" stroke="none" />
                <text fill="#000000" stroke="none" font-family="Arial" font-size="13px" font-style="normal" font-weight="normal" text-decoration="none" x="350.5" y="311.5">isValidUser(id, username)</text>
            </g>
        </g>
        <g transform="translate(2,10) scale(1,1)">
            <rect fill="#ffd8d8" stroke="none" x="304" y="316" width="13" height="212" />
        </g>
        <g transform="translate(2,10) scale(1,1)">
            <path fill="none" stroke="#700000" d="M 304 316 L 317 316 L 317 528 L 304 528 L 304 316 Z Z" stroke-miterlimit="10" />
        </g>
        <g transform="translate(2,10) scale(1,1)">
            <path fill="none" stroke="#000000" d="M 317 384 L 608 384" stroke-miterlimit="10" />
        </g>
        <g transform="translate(2,10) scale(1,1)">
            <path fill="#000000" stroke="none" d="M 597.8373251423759 388.209517756016 L 608 384 L 597.8373251423758 379.790482243984" />
        </g>
        <g transform="translate(2,10) scale(1,1)">
            <path fill="none" stroke="#000000" d="M 597.8373251423759 388.209517756016 L 608 384 L 597.8373251423758 379.790482243984 L 597.8373251423759 388.209517756016" stroke-miterlimit="10" />
        </g>
        <g transform="translate(2,10) scale(1,1)">
            <g>
                <path fill="none" stroke="none" />
                <text fill="#000000" stroke="none" font-family="Arial" font-size="13px" font-style="normal" font-weight="normal" text-decoration="none" x="415.8154296875" y="379.5">redirect</text>
            </g>
        </g>
        <g transform="translate(2,10) scale(1,1)">
            <path fill="none" stroke="#000000" d="M 317 480 L 533 480" stroke-miterlimit="10" />
        </g>
        <g transform="translate(2,10) scale(1,1)">
            <path fill="#000000" stroke="none" d="M 522.8373251423759 484.209517756016 L 533 480 L 522.8373251423758 475.790482243984" />
        </g>
        <g transform="translate(2,10) scale(1,1)">
            <path fill="none" stroke="#000000" d="M 522.8373251423759 484.209517756016 L 533 480 L 522.8373251423758 475.790482243984 L 522.8373251423759 484.209517756016" stroke-miterlimit="10" />
        </g>
        <g transform="translate(2,10) scale(1,1)">
            <g>
                <path fill="none" stroke="none" />
                <text fill="#000000" stroke="none" font-family="Arial" font-size="13px" font-style="normal" font-weight="normal" text-decoration="none" x="347.5" y="476.5">setAttribute(errorMessage)</text>
            </g>
        </g>
        <g transform="translate(2,10) scale(1,1)">
            <rect fill="#e2e2e2" stroke="none" x="533" y="480" width="13" height="28" />
        </g>
        <g transform="translate(2,10) scale(1,1)">
            <path fill="none" stroke="#383838" d="M 533 480 L 546 480 L 546 508 L 533 508 L 533 480 Z Z" stroke-miterlimit="10" />
        </g>
        <g transform="translate(2,10) scale(1,1)">
            <path fill="none" stroke="#000000" d="M 317 520 L 608 520" stroke-miterlimit="10" />
        </g>
        <g transform="translate(2,10) scale(1,1)">
            <path fill="#000000" stroke="none" d="M 597.8373251423759 524.209517756016 L 608 520 L 597.8373251423758 515.790482243984" />
        </g>
        <g transform="translate(2,10) scale(1,1)">
            <path fill="none" stroke="#000000" d="M 597.8373251423759 524.209517756016 L 608 520 L 597.8373251423758 515.790482243984 L 597.8373251423759 524.209517756016" stroke-miterlimit="10" />
        </g>
        <g transform="translate(2,10) scale(1,1)">
            <g>
                <path fill="none" stroke="none" />
                <text fill="#000000" stroke="none" font-family="Arial" font-size="13px" font-style="normal" font-weight="normal" text-decoration="none" x="415.8154296875" y="514.5">redirect</text>
            </g>
        </g>
        <g transform="translate(2,10) scale(1,1)">
            <path fill="none" stroke="#000000" d="M 168 328 L 808 328 L 808 584 L 168 584 L 168 328" stroke-miterlimit="10" />
        </g>
        <g transform="translate(2,10) scale(1,1)">
            <path fill="#ffffd8" stroke="none" d="M 168 328 L 168 350 L 270.455078125 350 L 281.455078125 339 L 281.455078125 328 L 168 328" />
        </g>
        <g transform="translate(2,10) scale(1,1)">
            <path fill="none" stroke="#000000" d="M 168 328 L 168 350 L 270.455078125 350 L 281.455078125 339 L 281.455078125 328 L 168 328 L 168 328" stroke-miterlimit="10" />
        </g>
        <g transform="translate(2,10) scale(1,1)">
            <g>
                <path fill="none" stroke="none" />
                <text fill="#000000" stroke="none" font-family="Arial" font-size="13px" font-style="normal" font-weight="normal" text-decoration="none" x="192.72998046875" y="345.5">Is Valid User</text>
            </g>
        </g>
        <g transform="translate(2,10) scale(1,1)">
            <g>
                <path fill="none" stroke="none" />
                <text fill="#000000" stroke="none" font-family="Arial" font-size="13px" font-style="normal" font-weight="bold" text-decoration="none" x="173" y="345.5">alt</text>
            </g>
        </g>
        <g transform="translate(2,10) scale(1,1)">
            <g>
                <path fill="none" stroke="none" />
                <text fill="#000000" stroke="none" font-family="Arial" font-size="13px" font-style="normal" font-weight="normal" text-decoration="none" x="187.5" y="378.5">[YES]</text>
            </g>
        </g>
        <g transform="translate(2,10) scale(1,1)">
            <path fill="none" stroke="#000000" d="M 168 449 L 808 449" stroke-miterlimit="10" stroke-dasharray="10,3" />
        </g>
        <g transform="translate(2,10) scale(1,1)">
            <g>
                <path fill="none" stroke="none" />
                <text fill="#000000" stroke="none" font-family="Arial" font-size="13px" font-style="normal" font-weight="normal" text-decoration="none" x="187.5" y="476.5">[NO]</text>
            </g>
        </g>
    </g>
</svg>